<svg width="3364" height="1083" viewBox="0 0 3364 1083" fill="none" xmlns="http://www.w3.org/2000/svg">
<path fill-rule="evenodd" clip-rule="evenodd" d="M2859.61 529.322C2832.46 529.322 2810.45 551.331 2810.45 578.481V1033.2C2810.45 1060.35 2832.46 1082.36 2859.61 1082.36H3314.33C3341.48 1082.36 3363.49 1060.35 3363.49 1033.2V578.481C3363.49 551.331 3341.48 529.322 3314.33 529.322H2859.61ZM3042.78 905.824H3213.81L3247.27 984.982C3249.5 990.556 3252.84 995.202 3257.3 998.918C3262.13 1002.26 3267.33 1003.93 3272.91 1003.93C3279.6 1003.93 3285.54 1001.52 3290.75 996.688C3296.32 991.485 3299.11 984.796 3299.11 976.62C3299.11 972.904 3298.37 969.187 3296.88 965.471L3156.96 628.214C3154.73 622.268 3151.2 617.623 3146.37 614.278C3141.54 610.933 3136.33 609.261 3130.76 609.261C3124.81 608.889 3119.24 610.376 3114.04 613.721C3109.21 617.065 3105.49 621.897 3102.89 628.214L2961.3 970.488C2960.18 973.833 2959.62 976.806 2959.62 979.407C2959.99 986.468 2962.22 992.414 2966.31 997.246C2970.4 1001.71 2976.53 1003.93 2984.71 1003.93C2990.28 1003.93 2995.3 1002.26 2999.76 998.918C3004.22 995.573 3007.56 990.928 3009.79 984.982L3042.78 905.824ZM2934.53 973.275C2934.16 981.451 2931 988.326 2925.05 993.901C2919.48 999.104 2912.79 1001.71 2904.99 1001.71C2896.44 1001.71 2889.38 999.104 2883.8 993.901C2878.6 988.326 2876 981.451 2876 973.275V639.921C2876 631.745 2878.79 625.055 2884.36 619.853C2889.93 614.278 2897.18 611.491 2906.1 611.491C2913.53 611.491 2920.04 614.278 2925.61 619.853C2931.56 625.055 2934.53 631.745 2934.53 639.921V973.275Z" fill="#54A2F3"/>
<path d="M3191.18 852.309L3127.67 702.068L3065.07 852.309H3191.18Z" fill="#54A2F3"/>
<path d="M2725.06 1024.44C2769.27 1012.13 2810.4 998.681 2848.24 984.767L2871.45 1070.16C2817.83 1049.82 2765.38 1034.25 2725.06 1024.44Z" fill="#54A2F3"/>
<path d="M898.541 15.2177C918.058 7.31026 946.882 1.66844 974.253 18.0941C998.542 32.6717 1009.16 57.3747 1014.08 78.417L1014.99 82.5739L1015.51 85.3041C1020.38 113.535 1011.38 142.423 1002.4 164.927C992.357 190.08 977.497 218.427 961.559 247.746C928.839 307.936 888.775 377.439 856.486 456.848C840.959 495.032 827.447 534.993 817.759 576.451C852.196 578.679 887.605 582.181 923.961 587.069C950.95 590.697 969.882 615.479 966.248 642.419C962.612 669.359 937.787 688.259 910.798 684.63C873.696 679.642 837.775 676.208 803.055 674.171C796.695 774.965 818.294 882.676 890.424 993.955L893.459 998.593L894.145 999.666C908.243 1022.24 901.807 1052.05 879.426 1066.78C857.043 1081.51 827.056 1075.66 811.83 1053.82L811.118 1052.77L807.516 1047.26C722.74 916.413 697.702 789.076 704.43 672.071C611.323 673.687 528.307 685.671 455.813 704.392C396.687 785.463 339.444 861.926 288.579 923.503C245.804 975.288 205.173 1019.52 170.065 1047.19C152.939 1060.68 133.085 1073.55 111.954 1079.25C88.2151 1085.66 58.1635 1083.59 35.3634 1059.45C-12.4257 1008.87 -6.62414 939.443 22.3043 881.042C51.5564 821.989 108.302 762.812 186.16 712.852C243.701 675.929 314.004 643.2 396.234 618.751C430.418 571.639 465.352 522.994 500.287 474.583C601.298 334.61 702.91 195.861 783.143 109.003C803.384 87.0911 822.972 67.6925 841.458 52.0836C859.438 36.9025 878.785 23.2217 898.541 15.2177ZM284.793 769.31C268.68 777.811 253.571 786.621 239.486 795.659C171.739 839.131 129.795 886.14 110.706 924.676C98.7081 948.897 97.1157 965.621 99.5341 976.866C102.25 975.015 105.387 972.735 108.953 969.925C135.293 949.166 170.363 911.881 212.494 860.877C235.34 833.218 259.562 802.391 284.793 769.31ZM913.884 120.174C911.182 122.261 908.269 124.606 905.147 127.242C890.859 139.306 874.298 155.541 855.642 175.737C780.285 257.315 682.372 390.687 580.306 532.121C567.2 550.283 554.031 568.565 540.852 586.861C595.936 578.601 654.88 573.877 717.523 573.479C728.739 518.994 745.719 467.503 765.106 419.824C800.017 333.969 843.602 258.33 874.88 200.793C890.941 171.248 903.166 147.584 910.787 128.492C912.014 125.416 913.027 122.647 913.884 120.174Z" fill="white"/>
<path d="M1447.94 820.73C1457.86 820.73 1465.49 825.309 1470.83 834.466C1476.94 843.624 1479.99 856.215 1479.99 872.241C1479.99 902.765 1472.74 926.422 1458.24 943.21C1425.43 983.655 1389.56 1016.85 1350.64 1042.8C1312.49 1068.74 1268.99 1081.72 1220.15 1081.72C1153 1081.72 1103.01 1051.19 1070.2 990.142C1038.15 929.093 1022.12 850.11 1022.12 753.195C1022.12 660.095 1033.95 554.022 1057.61 434.976C1082.03 315.93 1117.51 213.672 1164.06 128.203C1211.38 42.7344 1267.46 0 1332.33 0C1368.96 0 1397.58 17.1701 1418.18 51.5103C1439.55 85.0874 1450.23 133.545 1450.23 196.884C1450.23 287.694 1425.05 393.004 1374.68 512.813C1324.32 632.623 1256.02 751.287 1169.79 868.807C1175.13 900.094 1183.9 922.606 1196.11 936.342C1208.32 949.315 1224.35 955.802 1244.19 955.802C1275.48 955.802 1302.95 947.026 1326.61 929.474C1350.26 911.16 1380.41 880.253 1417.04 836.756C1426.19 826.072 1436.49 820.73 1447.94 820.73ZM1307.15 113.323C1289.6 113.323 1269.75 144.992 1247.62 208.33C1225.49 271.669 1206.03 350.27 1189.25 444.133C1172.46 537.996 1163.3 628.044 1161.77 714.276C1215.95 624.991 1259.07 535.707 1291.12 446.422C1323.17 356.375 1339.2 274.34 1339.2 200.318C1339.2 142.321 1328.51 113.323 1307.15 113.323Z" fill="white"/>
<path d="M1468.74 1081.72C1439.74 1081.72 1419.14 1066.45 1406.93 1035.93C1395.48 1005.4 1389.76 956.565 1389.76 889.411C1389.76 790.206 1403.88 695.961 1432.11 606.677C1438.98 584.546 1450.05 568.521 1465.31 558.6C1481.33 547.917 1503.46 542.575 1531.7 542.575C1546.96 542.575 1557.65 544.483 1563.75 548.298C1569.86 552.114 1572.91 559.363 1572.91 570.047C1572.91 582.257 1567.18 609.729 1555.74 652.464C1548.11 682.988 1542 709.697 1537.42 732.591C1532.84 754.721 1529.03 782.575 1525.98 816.152C1546.58 756.629 1571 706.263 1599.23 665.055C1628.23 623.847 1657.61 593.322 1687.37 573.481C1717.9 552.877 1746.52 542.575 1773.23 542.575C1799.93 542.575 1818.63 548.68 1829.31 560.89C1840.76 573.099 1846.48 591.796 1846.48 616.979C1846.48 641.398 1839.23 685.659 1824.74 749.761C1818.63 777.233 1814.43 797.837 1812.14 811.573C1850.3 717.71 1892.65 649.411 1939.2 606.677C1985.75 563.942 2029.25 542.575 2069.7 542.575C2119.3 542.575 2144.1 567.376 2144.1 616.979C2144.1 646.74 2135.7 700.54 2118.92 778.377C2104.42 844.768 2097.17 888.648 2097.17 910.015C2097.17 940.539 2108.23 955.802 2130.36 955.802C2145.63 955.802 2163.56 946.644 2184.16 928.33C2205.53 909.252 2233.77 878.727 2268.87 836.756C2278.03 826.072 2288.33 820.73 2299.77 820.73C2309.7 820.73 2317.33 825.309 2322.67 834.466C2328.77 843.624 2331.83 856.215 2331.83 872.241C2331.83 902.765 2324.58 926.422 2310.08 943.21C2277.26 983.655 2241.78 1016.85 2203.62 1042.8C2166.23 1068.74 2123.5 1081.72 2075.42 1081.72C2036.5 1081.72 2007.12 1070.65 1987.28 1048.52C1967.44 1025.63 1957.52 992.813 1957.52 950.078C1957.52 928.711 1962.86 890.555 1973.54 835.611C1983.46 787.535 1988.42 754.339 1988.42 736.025C1988.42 723.815 1984.23 717.71 1975.83 717.71C1965.91 717.71 1951.79 730.683 1933.48 756.629C1915.16 781.812 1896.85 815.389 1878.54 857.36C1860.22 899.331 1845.34 943.592 1833.89 990.142C1825.5 1026.77 1815.58 1051.19 1804.13 1063.4C1793.45 1075.61 1775.9 1081.72 1751.48 1081.72C1726.29 1081.72 1707.22 1069.89 1694.24 1046.23C1682.03 1021.81 1675.93 992.431 1675.93 958.091C1675.93 929.093 1679.74 887.121 1687.37 832.177C1693.48 783.338 1696.53 751.287 1696.53 736.025C1696.53 723.815 1692.34 717.71 1683.94 717.71C1672.49 717.71 1657.99 731.446 1640.44 758.918C1622.89 786.39 1605.72 821.494 1588.93 864.228C1572.91 906.962 1559.93 948.934 1550.01 990.142C1541.62 1026.01 1531.7 1050.43 1520.25 1063.4C1509.57 1075.61 1492.4 1081.72 1468.74 1081.72Z" fill="white"/>
<path d="M2370.91 1081.72C2327.41 1081.72 2291.92 1064.55 2264.45 1030.21C2237.74 995.865 2224.39 950.842 2224.39 895.134C2224.39 834.085 2238.5 776.47 2266.74 722.289C2294.98 667.344 2332.37 623.465 2378.92 590.651C2426.23 557.074 2476.22 540.286 2528.87 540.286C2545.66 540.286 2556.72 543.72 2562.07 550.588C2568.17 556.693 2573.13 568.139 2576.95 584.928C2591.45 581.875 2607.47 580.349 2625.02 580.349C2643.34 580.349 2657.46 584.928 2667.38 594.085C2677.3 603.243 2682.26 616.216 2682.26 633.004C2682.26 650.556 2678.44 681.08 2670.81 724.578C2662.42 771.128 2655.93 815.77 2651.35 858.505C2646.77 900.476 2644.48 947.789 2644.48 1000.44C2644.48 1029.44 2638.38 1050.43 2626.17 1063.4C2614.72 1075.61 2595.64 1081.72 2568.93 1081.72C2542.99 1081.72 2523.53 1075.61 2510.56 1063.4C2498.35 1050.43 2492.24 1029.82 2492.24 1001.59L2493.39 983.274C2469.73 1048.9 2428.9 1081.72 2370.91 1081.72ZM2415.55 966.104C2436.91 966.104 2456.37 951.223 2473.93 921.462C2491.48 891.7 2507.12 838.664 2520.86 762.352L2542.61 646.74C2511.32 647.503 2482.32 659.713 2455.61 683.37C2428.9 706.263 2407.53 736.788 2391.51 774.944C2375.48 813.099 2367.47 853.544 2367.47 896.279C2367.47 919.172 2371.67 936.724 2380.06 948.934C2389.22 960.38 2401.05 966.104 2415.55 966.104Z" fill="white"/>
</svg>
