<svg width="100" height="100" viewBox="0 0 100 100" fill="none" xmlns="http://www.w3.org/2000/svg">
<g clip-path="url(#clip0_866_1557)">
<rect width="100" height="100" rx="12" fill="#2687EF"/>
<circle cx="22" cy="73" r="53" fill="white"/>
<path d="M22.9511 92.0254C28.3113 93.9656 40.2133 95.6998 44.9393 87.115" stroke="black" stroke-width="3.18" stroke-linecap="round"/>
<path d="M-3.45364 61.3752C-6.83007 48.7742 -3.02952 36.8073 5.03514 34.6463C7.759 33.9165 10.6209 34.3986 13.347 35.8428L12.7535 50.6744L20.7408 42.6652C22.8824 45.6882 24.6375 49.394 25.7511 53.5498C29.1275 66.1509 25.327 78.1178 17.2623 80.2787C9.19764 82.4396 -0.0771998 73.9763 -3.45364 61.3752Z" fill="#101010"/>
<path d="M32.5864 56.0752C29.2099 43.4741 33.0105 31.5072 41.0752 29.3463C43.799 28.6164 46.6609 29.0986 49.387 30.5428L48.7935 45.3744L56.7808 37.3651C58.9224 40.3882 60.6775 44.094 61.7911 48.2498C65.1675 60.8508 61.367 72.8177 53.3023 74.9787C45.2376 77.1396 35.9628 68.6762 32.5864 56.0752Z" fill="#101010"/>
<path d="M76.208 88.6235C73.7576 87.5955 74.957 84.7367 75.8629 83.4358C82.1873 80.0378 85.2823 87.0274 86.0392 90.947C86.8801 84.9362 89.5795 72.5491 93.6507 71.0873C97.722 69.6256 95.9714 79.8653 94.5872 85.1679C95.8887 82.3521 99.1538 76.9629 99.9245 75.8806C101.13 74.1881 103.363 71.6812 106.545 74.6959C107.443 75.5469 102.894 83.339 101.503 88.4298L105.654 83.6875C107.054 82.3538 109.548 79.5579 111.484 81.8111C108.865 87.1958 103.261 99.1806 101.797 104.042C100.334 108.903 91.4381 108.701 87.1729 107.992C79.8219 104.908 79.072 98.1097 79.6159 95.0961C79.5009 93.3669 78.6583 89.6515 76.208 88.6235Z" fill="white"/>
</g>
<defs>
<clipPath id="clip0_866_1557">
<rect width="100" height="100" rx="12" fill="white"/>
</clipPath>
</defs>
</svg>
