<svg width="301" height="305" viewBox="0 0 301 305" fill="none" xmlns="http://www.w3.org/2000/svg">
<path d="M112.921 161.458C119.432 166.341 135.872 174.642 149.544 168.783" stroke="#101010" stroke-width="9.85781" stroke-linecap="round"/>
<path d="M235.119 117.306C235.119 182.093 182.599 234.613 117.813 234.613C53.0262 234.613 0.506348 182.093 0.506348 117.306C0.506348 52.5199 53.0262 0 117.813 0C182.599 0 235.119 52.5199 235.119 117.306Z" fill="white"/>
<path d="M50.4541 75.6085C55.1167 103.307 73.2672 123.343 90.9945 120.359C96.9819 119.351 102.155 115.846 106.202 110.578L91.7686 82.0634L114.577 90.6018C116.067 82.7652 116.188 73.9374 114.65 64.8023C109.988 37.1034 91.8371 17.0681 74.1098 20.0522C56.3825 23.0362 45.7915 47.9097 50.4541 75.6085Z" fill="#101010"/>
<path d="M143.232 75.6085C147.894 103.307 166.045 123.343 183.772 120.359C189.76 119.351 194.933 115.846 198.98 110.578L184.546 82.0634L207.355 90.6018C208.844 82.7652 208.966 73.9374 207.428 64.8023C202.766 37.1034 184.615 17.0681 166.888 20.0522C149.16 23.0362 138.569 47.9097 143.232 75.6085Z" fill="#101010"/>
<path d="M30.2748 257.336C29.9555 258.02 29.7946 258.768 29.8041 259.523L30.2334 294.709C30.2663 297.375 31.3572 299.919 33.2661 301.781C35.1751 303.643 37.7456 304.67 40.4124 304.637L125.881 303.585C131.321 303.518 136.113 298.983 135.661 293.084C135.325 288.729 134.537 284.695 132.703 280.949C130.838 277.151 128.06 273.989 124.244 271.11L73.3723 248.066C72.8071 247.764 72.1828 247.392 71.5257 247.005C68.0108 244.917 63.4664 242.219 60.7349 246.186C58.3076 249.62 54.8013 253.1 50.7766 254.495C48.1995 255.394 44.6298 255.508 41.3187 255.27C40.578 255.211 39.8427 255.145 39.113 255.071C36.1677 254.78 33.4207 254.517 31.6482 255.569C31.0635 256.047 30.594 256.651 30.2748 257.336Z" fill="#101010"/>
<path d="M142.585 257.336C142.266 258.02 142.105 258.768 142.114 259.523L142.543 294.709C142.576 297.375 143.667 299.919 145.576 301.781C147.485 303.643 150.056 304.67 152.722 304.637L238.191 303.585C243.631 303.518 248.423 298.983 247.971 293.084C247.635 288.729 246.847 284.695 245.013 280.949C243.148 277.151 240.37 273.989 236.554 271.11L185.682 248.066C185.117 247.764 184.493 247.392 183.836 247.005C180.321 244.917 175.776 242.219 173.045 246.186C170.618 249.62 167.111 253.1 163.087 254.495C160.51 255.394 156.94 255.508 153.629 255.27C152.888 255.211 152.153 255.145 151.423 255.071C148.478 254.78 145.731 254.517 143.958 255.569C143.374 256.047 142.904 256.651 142.585 257.336Z" fill="#101010"/>
<path fill-rule="evenodd" clip-rule="evenodd" d="M45.6414 81.6016L6.8743 86.4765L6.1257 80.5234L44.9054 75.6469L42.1365 53.2433L121.662 47.2924L124.399 71.922L149.387 69.9998L146.636 47.7433L226.162 41.7924L231.827 92.7791L152.871 98.187L150.124 75.9608L125.062 77.8887L127.327 98.2791L48.3711 103.687L45.6414 81.6016ZM225.173 87.2208L158.129 91.8129L153.364 53.2566L220.838 48.2075L225.173 87.2208ZM53.6289 97.3129L120.673 92.7208L116.338 53.7075L48.8635 58.7566L53.6289 97.3129Z" fill="#2687EF" fill-opacity="0.8"/>
<path d="M256.981 184.472L269.554 171.899C267.439 171.016 265.518 169.726 263.9 168.102C262.275 166.484 260.984 164.562 260.101 162.446L247.528 175.019C246.547 176 246.056 176.491 245.634 177.032C245.137 177.67 244.71 178.36 244.361 179.09C244.067 179.709 243.847 180.369 243.409 181.684L241.093 188.625C240.987 188.943 240.971 189.284 241.048 189.611C241.125 189.937 241.291 190.235 241.528 190.472C241.765 190.709 242.063 190.875 242.39 190.952C242.716 191.029 243.057 191.013 243.375 190.907L250.316 188.591C251.633 188.153 252.291 187.933 252.91 187.639C253.643 187.29 254.329 186.866 254.968 186.366C255.509 185.944 256 185.453 256.981 184.472ZM273.042 168.411C274.296 167.158 275 165.457 275 163.685C275 161.912 274.296 160.211 273.042 158.958C271.789 157.704 270.088 157 268.315 157C266.543 157 264.842 157.704 263.589 158.958L262.081 160.466L262.146 160.654C262.888 162.781 264.104 164.71 265.702 166.298C267.337 167.943 269.334 169.183 271.534 169.919L273.042 168.411Z" fill="black"/>
<path d="M242.792 174.62C239.74 177.19 242.712 180.77 244.578 182.238C255.114 184.312 256.468 172.877 255.828 166.899C259.671 175.175 268.974 191.798 275.437 192.089C281.901 192.38 274.898 178.424 270.589 171.41C273.687 174.883 280.724 181.184 282.301 182.398C284.768 184.297 289.063 186.91 292.288 181.156C293.198 179.531 283.27 170.343 279.044 163.637L287.063 168.613C289.651 169.909 294.445 172.822 296.223 168.718C290.112 162.136 276.832 147.385 272.604 141.041C268.376 134.697 255.745 138.948 249.958 141.867C240.803 149.578 242.719 159.694 244.82 163.789C245.416 166.328 245.844 172.05 242.792 174.62Z" fill="white"/>
<path d="M236.157 150.72C236.955 152.624 239.137 153.514 241.029 152.706L272.181 139.417C274.074 138.61 274.961 136.412 274.163 134.508C273.364 132.603 271.183 131.714 269.291 132.521L238.139 145.81C236.246 146.617 235.359 148.816 236.157 150.72Z" fill="#181818"/>
<path d="M161.661 241.19L194.105 132.184L176.144 129.761L156.419 127.101L136.693 124.44L117.121 121.8L78 229.905L161.661 241.19Z" fill="#2687EF"/>
<path d="M170.565 125.351L177.396 126.273L176.144 129.761L156.419 127.101L136.693 124.44L138.098 120.972L147.002 122.173L148.986 118.472C159.436 116.084 168.793 119.561 172.166 121.599L170.565 125.351Z" fill="#2687EF" fill-opacity="0.7"/>
<path d="M124.672 159.558C126.703 156.125 130.724 158.464 132.48 160.063C136.264 170.113 125.208 173.334 119.207 173.689C128.003 176.115 145.933 182.548 147.286 188.875C148.639 195.202 133.72 190.597 126.091 187.504C130.027 189.987 137.403 195.887 138.861 197.243C141.141 199.363 144.427 203.168 139.283 207.298C137.831 208.463 127.131 200.187 119.82 197.125L126.05 204.213C127.755 206.552 131.419 210.8 127.665 213.231C120.164 208.289 103.425 197.625 96.4704 194.501C89.5159 191.377 91.6257 178.218 93.5499 172.029C99.6445 161.728 109.938 161.948 114.323 163.346C116.926 163.514 122.64 162.992 124.672 159.558Z" fill="white"/>
<path d="M100.005 156.957C102.015 157.43 103.251 159.434 102.767 161.434L94.7995 194.352C94.3154 196.351 92.2937 197.589 90.2838 197.116C88.2739 196.643 87.037 194.638 87.521 192.638L95.489 159.721C95.973 157.721 97.9948 156.484 100.005 156.957Z" fill="#181818"/>
</svg>
