<svg width="522" height="495" viewBox="0 0 522 495" fill="none" xmlns="http://www.w3.org/2000/svg">
<ellipse cx="325.655" cy="247.5" rx="147.632" ry="218.597" transform="rotate(13.7985 325.655 247.5)" fill="#68ABF4"/>
<path d="M290.54 313.264C278.375 306.168 265.196 307.35 260.127 308.829C266.252 295.523 282.176 265.109 296.876 249.903C311.576 234.696 318.63 237.23 320.32 240.398C310.689 254.084 310.393 265.109 311.449 268.911C320.067 277.021 320.954 283.273 320.32 285.385C313.73 310.73 297.721 314.531 290.54 313.264Z" fill="white"/>
<path d="M174.673 151.572C164.251 181.82 143.418 203.057 124.651 204.519C121.247 204.784 117.911 204.398 114.718 203.298C93.9176 196.131 87.036 161.354 99.3477 125.619C111.659 89.8852 138.502 66.7265 159.303 73.893C165.063 75.8776 169.755 79.9794 173.269 85.6326C182.442 100.394 183.575 125.733 174.673 151.572Z" fill="#2687EF"/>
<path d="M267.364 244.331L227.446 312.128L257.226 329.869L326.29 213.284L292.075 190.474L285.105 203.146L173.269 85.6326C182.442 100.394 183.575 125.733 174.673 151.572C164.251 181.82 143.418 203.057 124.651 204.519L267.364 244.331Z" fill="#A9D4FB"/>
<path d="M237.316 294.388C230.726 280.701 240.061 279.392 245.553 280.448C232.88 263.514 246.609 260.72 255.057 261.44C251.509 257.385 253.579 252.147 255.057 250.035C260.338 247.289 273.306 244.966 282.936 257.638C292.567 270.31 281.458 273.478 274.7 273.478C282.303 283.109 272.799 287.207 267.096 288.051C272.672 290.586 271.109 295.866 269.631 298.189C261.605 302.625 243.905 308.074 237.316 294.388Z" fill="white"/>
<path d="M326.199 221.971C326.199 288.729 380.316 342.847 447.074 342.847C484.436 276.914 491.029 160.434 453.667 101.272C451.485 101.155 449.286 101.095 447.074 101.095C380.316 101.095 326.199 155.213 326.199 221.971Z" fill="white"/>
<path d="M421.612 184.941C414.222 210.602 394.049 227.319 376.553 222.281C370.644 220.579 365.796 216.613 362.251 211.118L379.525 185.903L355.802 191.148C355.075 183.537 355.817 175.159 358.254 166.696C365.644 141.036 385.817 124.318 403.313 129.357C420.809 134.395 429.001 159.281 421.612 184.941Z" fill="#101010"/>
<circle cx="350.374" cy="257.135" r="10.9887" fill="#101010"/>
<path d="M77.8539 35.1637L102.029 68.1298M71.2607 101.096L0.933105 46.1524M64.6675 136.26C44.8879 142.853 44.8879 142.853 16.3173 153.842" stroke="#2687EF" stroke-width="3"/>
</svg>
