<svg width="390" height="287" viewBox="0 0 390 287" fill="none" xmlns="http://www.w3.org/2000/svg">
<g clip-path="url(#clip0_866_1472)">
<path d="M294.458 72.3449C291.67 69.3195 295.199 66.0659 297.313 64.8173C308.407 64.104 308.265 75.9399 306.807 81.9471C311.862 74.0237 323.639 58.3177 330.313 58.8805C336.988 59.4433 327.929 72.7364 322.566 79.3125C326.212 76.185 334.28 70.698 336.062 69.6701C338.849 68.0627 343.608 65.9702 346.148 72.2645C346.865 74.0411 335.442 82.0857 330.205 88.3592L339.104 84.3534C341.935 83.3766 347.247 81.0449 348.523 85.4647C341.367 91.3613 325.758 104.63 320.567 110.534C315.377 116.438 302.979 110.425 297.429 106.681C289.063 97.6044 292.384 87.5479 295.09 83.6542C296.042 81.145 297.247 75.3703 294.458 72.3449Z" fill="white"/>
<rect x="286.391" y="92.5001" width="42.7" height="7.7" rx="3.85" transform="rotate(30.3536 286.391 92.5001)" fill="#181818"/>
<path d="M149.961 220.529C210.996 220.529 260.475 171.05 260.475 110.015C260.475 48.9791 210.996 -0.5 149.961 -0.5C88.925 -0.5 39.446 48.9791 39.446 110.015C39.446 171.05 88.925 220.529 149.961 220.529Z" fill="white"/>
<path fill-rule="evenodd" clip-rule="evenodd" d="M142.592 149.54C143.736 148.015 145.898 147.706 147.423 148.85C150.199 150.932 155.238 153.835 161.048 155.546C166.874 157.261 173.069 157.665 178.496 155.339C180.247 154.589 182.275 155.4 183.026 157.152C183.777 158.903 182.965 160.931 181.214 161.682C173.76 164.877 165.77 164.13 159.099 162.165C152.411 160.196 146.64 156.888 143.282 154.37C141.758 153.227 141.449 151.064 142.592 149.54Z" fill="#101010"/>
<path d="M55.5469 195.026C59.2272 196.866 57.0804 201.16 55.5469 203.077C45.4263 207.677 41.3627 196.56 40.596 190.426C38.6792 199.627 33.2355 218.488 26.795 220.328C20.3546 222.168 24.1116 206.527 26.795 198.476C24.4949 202.693 18.8963 210.684 17.5944 212.278C15.5584 214.769 11.8501 218.412 7.24372 213.428C5.94358 212.021 13.7721 200.448 16.4443 192.726L9.54385 199.626C7.24372 201.544 3.10345 205.607 0.343262 201.927C4.94357 193.876 14.8342 175.935 17.5944 168.574C20.3546 161.214 34.0789 162.441 40.596 163.974C51.6367 169.494 52.0967 180.075 50.9467 184.676C50.9467 187.359 51.8667 193.186 55.5469 195.026Z" fill="white"/>
<path d="M86.5021 70.7313C90.8946 96.8259 107.994 115.701 124.695 112.89C130.336 111.941 135.21 108.638 139.022 103.676L125.425 76.8122L146.913 84.8559C148.316 77.473 148.43 69.1566 146.981 60.5504C142.589 34.4553 125.489 15.5799 108.788 18.3912C92.0874 21.2025 82.1096 44.6358 86.5021 70.7313Z" fill="#101010"/>
<path d="M173.908 70.7313C178.301 96.8259 195.4 115.701 212.101 112.89C217.742 111.941 222.616 108.638 226.428 103.676L212.83 76.8122L234.318 84.8559C235.722 77.473 235.836 69.1566 234.388 60.5504C229.994 34.4553 212.895 15.5799 196.194 18.3912C179.493 21.2025 169.515 44.6358 173.908 70.7313Z" fill="#101010"/>
<path d="M67.4916 241.937C67.1908 242.581 67.0393 243.286 67.0482 243.997L67.4526 277.146C67.4836 279.658 68.5114 282.054 70.3098 283.808C72.108 285.562 74.53 286.53 77.0423 286.499L157.563 285.507C162.687 285.444 167.202 281.172 166.776 275.614C166.46 271.512 165.717 267.711 163.989 264.183C162.233 260.604 159.615 257.626 156.02 254.913L108.094 233.203C107.562 232.919 106.973 232.568 106.354 232.204C103.043 230.238 98.7612 227.695 96.188 231.432C93.9011 234.668 90.5978 237.946 86.8066 239.261C84.3783 240.108 81.0155 240.215 77.8963 239.991C77.1984 239.935 76.5054 239.872 75.818 239.804C73.0432 239.529 70.4553 239.281 68.7856 240.272C68.2346 240.723 67.7924 241.291 67.4916 241.937Z" fill="#101010"/>
<path d="M173.299 241.937C172.998 242.581 172.846 243.286 172.855 243.997L173.26 277.146C173.291 279.658 174.318 282.054 176.117 283.808C177.915 285.562 180.337 286.53 182.849 286.499L263.37 285.507C268.494 285.444 273.009 281.172 272.583 275.614C272.267 271.512 271.524 267.711 269.796 264.183C268.04 260.604 265.422 257.626 261.827 254.913L213.901 233.203C213.369 232.919 212.781 232.568 212.161 232.204C208.85 230.238 204.569 227.695 201.995 231.432C199.709 234.668 196.406 237.946 192.614 239.261C190.185 240.108 186.823 240.215 183.703 239.991C183.005 239.935 182.312 239.872 181.625 239.804C178.85 239.529 176.262 239.281 174.593 240.272C174.042 240.723 173.6 241.291 173.299 241.937Z" fill="#101010"/>
<path d="M53.8877 166.661L19.9871 157.957C17.9276 157.429 15.8294 158.67 15.3007 160.729C14.7719 162.789 16.0128 164.887 18.0723 165.416L51.9729 174.119C54.0324 174.648 56.1306 173.407 56.6594 171.347C57.1881 169.288 55.9472 167.19 53.8877 166.661Z" fill="#181818"/>
</g>
<defs>
<clipPath id="clip0_866_1472">
<rect width="390" height="287" fill="white"/>
</clipPath>
</defs>
</svg>
