<svg width="394" height="325" viewBox="0 0 394 325" fill="none" xmlns="http://www.w3.org/2000/svg">
<g clip-path="url(#clip0_866_1539)">
<circle cx="57.1459" cy="57.1459" r="57.1459" transform="matrix(-1 0 0 1 373.816 176.038)" fill="white"/>
<path d="M319.356 257.294C315.641 258.68 306.817 260.296 301.234 255.676" stroke="#101010" stroke-width="3.56816" stroke-linecap="round"/>
<path d="M254.346 282.962C255.788 284.526 253.963 286.209 252.87 286.854C247.133 287.223 247.207 281.103 247.961 277.997C245.347 282.094 239.257 290.215 235.806 289.924C232.355 289.633 237.039 282.76 239.812 279.359C237.927 280.976 233.755 283.814 232.833 284.345C231.392 285.176 228.931 286.258 227.618 283.004C227.247 282.085 233.154 277.925 235.862 274.681L231.26 276.753C229.797 277.258 227.05 278.463 226.39 276.178C230.09 273.129 238.161 266.268 240.845 263.215C243.529 260.162 249.94 263.271 252.81 265.207C257.136 269.901 255.419 275.101 254.019 277.114C253.527 278.412 252.904 281.398 254.346 282.962Z" fill="white"/>
<path d="M259.524 270.822C258.968 271.771 257.748 272.09 256.8 271.534L241.182 262.388C240.234 261.833 239.915 260.613 240.47 259.664C241.026 258.716 242.246 258.397 243.194 258.952L258.812 268.098C259.76 268.654 260.079 269.873 259.524 270.822Z" fill="#181818"/>
<path d="M359.314 301.4C359.469 301.733 359.548 302.097 359.543 302.465L359.334 319.606C359.318 320.905 358.786 322.144 357.856 323.051C356.926 323.958 355.674 324.459 354.375 324.443L312.739 323.93C310.089 323.897 307.755 321.688 307.975 318.814C308.138 316.693 308.522 314.728 309.416 312.903C310.324 311.053 311.678 309.512 313.536 308.11L338.319 296.884C338.594 296.737 338.898 296.556 339.218 296.367C340.93 295.35 343.144 294.036 344.475 295.968C345.657 297.641 347.365 299.336 349.326 300.016C350.582 300.454 352.321 300.51 353.934 300.394C354.294 300.365 354.653 300.333 355.008 300.297C356.443 300.155 357.781 300.026 358.645 300.539C358.929 300.772 359.158 301.066 359.314 301.4Z" fill="#101010"/>
<path d="M304.602 301.4C304.757 301.733 304.836 302.097 304.831 302.465L304.622 319.606C304.606 320.905 304.075 322.144 303.145 323.051C302.215 323.958 300.962 324.459 299.663 324.443L258.027 323.93C255.377 323.897 253.043 321.688 253.263 318.814C253.427 316.693 253.811 314.728 254.704 312.903C255.612 311.053 256.966 309.512 258.825 308.11L283.607 296.884C283.882 296.737 284.186 296.556 284.506 296.367C286.219 295.35 288.432 294.036 289.763 295.968C290.946 297.641 292.654 299.336 294.614 300.016C295.87 300.454 297.609 300.51 299.222 300.394C299.583 300.365 299.941 300.333 300.296 300.297C301.731 300.155 303.069 300.026 303.933 300.539C304.218 300.772 304.446 301.066 304.602 301.4Z" fill="#101010"/>
<path d="M365.49 277.143C363.587 278.095 364.697 280.315 365.49 281.306C370.723 283.685 372.825 277.936 373.221 274.764C374.212 279.522 377.027 289.275 380.357 290.226C383.688 291.178 381.745 283.09 380.357 278.927C381.547 281.108 384.442 285.24 385.115 286.063C386.168 287.352 388.085 289.236 390.467 286.658C391.139 285.931 387.091 279.947 385.71 275.954L389.278 279.522C390.467 280.513 392.608 282.614 394.035 280.711C391.657 276.548 386.542 267.271 385.115 263.465C383.688 259.659 376.591 260.293 373.221 261.086C367.512 263.941 367.274 269.412 367.869 271.791C367.869 273.178 367.393 276.192 365.49 277.143Z" fill="white"/>
<path d="M386.301 259.408C386.028 258.343 384.943 257.702 383.878 257.975L366.348 262.476C365.283 262.749 364.641 263.834 364.915 264.899C365.188 265.964 366.273 266.606 367.338 266.332L384.868 261.832C385.933 261.558 386.574 260.473 386.301 259.408Z" fill="#181818"/>
<path d="M272.778 157.788C273.123 149.196 281.9 151.471 286.246 153.682L297.254 168.648C299.519 171.747 301.868 178.153 293.148 178.985C282.248 180.024 272.348 168.527 272.778 157.788Z" fill="black"/>
<path d="M305.01 178.149C301.901 175.88 295.354 171.854 294.041 173.903C290.099 172.842 282.155 168.329 281.912 158.762C281.668 149.195 295.813 145.617 302.917 145.024C306.992 139.622 329.577 160.124 340.361 171.051C341.148 172.152 341.358 174.876 335.903 176.959C330.448 179.043 316.647 170.487 310.428 165.949C305.201 161.966 300.063 161.16 304.312 167.108C306.817 170.613 310.503 169.247 311.593 175.214C312.682 181.182 307.658 179.657 305.01 178.149Z" fill="white"/>
<path d="M216.274 177.962C216.274 228.706 175.137 269.843 124.392 269.843C73.647 269.843 32.5101 228.706 32.5101 177.962C32.5101 127.217 73.647 86.0798 124.392 86.0798C175.137 86.0798 216.274 127.217 216.274 177.962Z" fill="white"/>
<path fill-rule="evenodd" clip-rule="evenodd" d="M133.055 215.611C127.278 214.162 122.286 211.71 119.534 209.952C118.199 209.099 116.426 209.49 115.573 210.825C114.72 212.16 115.111 213.934 116.446 214.787C119.68 216.853 125.24 219.565 131.66 221.176C138.062 222.782 145.621 223.366 152.648 220.801C154.136 220.258 154.902 218.611 154.358 217.123C153.815 215.634 152.168 214.869 150.68 215.412C145.135 217.436 138.85 217.065 133.055 215.611Z" fill="#101010"/>
<path d="M71.6323 145.301C75.2843 166.997 89.501 182.69 103.386 180.352C108.076 179.563 112.128 176.818 115.297 172.692L103.992 150.357L121.858 157.045C123.024 150.907 123.119 143.992 121.915 136.837C118.263 115.142 104.046 99.4487 90.1609 101.786C76.2758 104.123 67.9803 123.606 71.6323 145.301Z" fill="#101010"/>
<path d="M144.302 145.301C147.954 166.997 162.171 182.69 176.056 180.352C180.745 179.563 184.797 176.818 187.967 172.692L176.662 150.357L194.527 157.045C195.694 150.907 195.789 143.992 194.584 136.837C190.932 115.142 176.716 99.4487 162.83 101.786C148.945 104.123 140.65 123.606 144.302 145.301Z" fill="#101010"/>
<path d="M55.8269 287.641C55.5769 288.177 55.4509 288.763 55.4583 289.354L55.7945 316.914C55.8203 319.002 56.6748 320.995 58.17 322.453C59.6651 323.912 61.6786 324.716 63.7674 324.691L130.712 323.866C134.973 323.814 138.726 320.262 138.372 315.641C138.109 312.23 137.491 309.071 136.055 306.136C134.595 303.161 132.418 300.685 129.429 298.43L89.5836 280.38C89.1409 280.144 88.6519 279.853 88.1372 279.549C85.3841 277.914 81.8247 275.801 79.6852 278.908C77.784 281.598 75.0376 284.323 71.8853 285.416C69.8667 286.12 67.0707 286.21 64.4772 286.023C63.897 285.977 63.3211 285.925 62.7495 285.868C60.4427 285.639 58.291 285.433 56.9027 286.257C56.4447 286.632 56.077 287.105 55.8269 287.641Z" fill="#101010"/>
<path d="M143.795 287.641C143.545 288.177 143.419 288.763 143.426 289.354L143.763 316.914C143.788 319.002 144.643 320.995 146.138 322.453C147.633 323.912 149.647 324.716 151.735 324.691L218.68 323.866C222.941 323.814 226.694 320.262 226.34 315.641C226.077 312.23 225.459 309.071 224.023 306.136C222.563 303.161 220.386 300.685 217.397 298.43L177.552 280.38C177.109 280.144 176.62 279.853 176.105 279.549C173.352 277.914 169.793 275.801 167.653 278.908C165.752 281.598 163.006 284.323 159.853 285.416C157.835 286.12 155.039 286.21 152.445 286.023C151.865 285.977 151.289 285.925 150.718 285.868C148.411 285.639 146.259 285.433 144.871 286.257C144.413 286.632 144.045 287.105 143.795 287.641Z" fill="#101010"/>
<path d="M45.8963 248.64C48.9561 250.17 47.1712 253.74 45.8963 255.333C37.482 259.158 34.1035 249.915 33.4661 244.815C31.8724 252.465 27.3465 268.146 21.992 269.676C16.6374 271.206 19.7609 258.202 21.992 251.509C20.0796 255.015 15.425 261.658 14.3426 262.983C12.6498 265.054 9.56679 268.083 5.73704 263.939C4.6561 262.769 11.1647 253.148 13.3864 246.728L7.64938 252.465C5.73704 254.059 2.29482 257.437 0 254.377C3.82469 247.684 12.0478 232.768 14.3426 226.648C16.6374 220.529 28.0477 221.549 33.4661 222.823C42.6453 227.413 43.0278 236.21 42.0716 240.035C42.0716 242.266 42.8366 247.11 45.8963 248.64Z" fill="white"/>
<path d="M12.4355 220.126C12.8751 218.413 14.6196 217.382 16.3318 217.821L44.5168 225.057C46.229 225.497 47.2607 227.241 46.8211 228.954C46.3815 230.666 44.6371 231.698 42.9248 231.258L14.7399 224.022C13.0276 223.582 11.9959 221.838 12.4355 220.126Z" fill="#181818"/>
<path fill-rule="evenodd" clip-rule="evenodd" d="M135.464 188.496C135.464 188.471 135.462 188.447 135.461 188.422L131.973 188.578C131.974 188.599 131.975 188.619 131.976 188.64C132.023 189.997 131.243 192.449 127.865 194.499C124.418 196.59 118.26 198.237 107.78 197.55C106.818 197.487 105.987 198.216 105.924 199.178C105.861 200.14 106.59 200.971 107.552 201.034C118.41 201.746 125.381 200.09 129.676 197.484C131.318 196.488 132.567 195.351 133.477 194.168C134.288 195.752 135.469 197.303 137.119 198.602C140.853 201.541 146.664 202.938 155.194 200.994C156.134 200.78 156.723 199.844 156.509 198.904C156.295 197.964 155.359 197.375 154.419 197.59C146.574 199.377 141.944 197.956 139.279 195.858C136.586 193.738 135.567 190.671 135.464 188.496Z" fill="black"/>
<path fill-rule="evenodd" clip-rule="evenodd" d="M292.978 198.203L310.971 216.695C312.013 217.766 311.989 219.479 310.918 220.522C309.847 221.564 308.134 221.54 307.091 220.469L292.609 205.585L274.69 220.653C273.546 221.615 271.839 221.468 270.877 220.324C269.915 219.18 270.063 217.473 271.207 216.511L292.978 198.203Z" fill="black"/>
<path fill-rule="evenodd" clip-rule="evenodd" d="M335.463 198.253L353.455 216.746C354.497 217.817 354.474 219.53 353.403 220.572C352.332 221.615 350.618 221.591 349.576 220.52L335.094 205.635L317.175 220.704C316.031 221.666 314.324 221.518 313.362 220.374C312.4 219.23 312.547 217.523 313.691 216.561L335.463 198.253Z" fill="black"/>
</g>
<defs>
<clipPath id="clip0_866_1539">
<rect width="394" height="324.162" fill="white" transform="translate(0 0.528809)"/>
</clipPath>
</defs>
</svg>
