<svg width="88" height="116" viewBox="0 0 88 116" fill="none" xmlns="http://www.w3.org/2000/svg">
<rect x="0.600098" width="87.2" height="115.281" rx="8.8678" fill="#2687EF"/>
<rect x="17.5967" y="17.3203" width="53.2068" height="53.2068" rx="26.6034" fill="white"/>
<path d="M23.9819 38.8395C23.9819 32.0808 27.5552 26.6019 31.963 26.6019C33.4517 26.6019 34.8452 27.2269 36.038 28.3152L33.7088 35.6577L38.8763 32.7207C39.5553 34.5207 39.944 36.6105 39.944 38.8395C39.944 45.5981 36.3707 51.077 31.963 51.077C27.5552 51.077 23.9819 45.5981 23.9819 38.8395Z" fill="#101010"/>
<path d="M47.3931 38.8394C47.3931 32.0807 50.9663 26.6018 55.3741 26.6018C56.8628 26.6018 58.2564 27.2268 59.4492 28.3151L57.1199 35.6576L62.2874 32.7206C62.9664 34.5206 63.3551 36.6104 63.3551 38.8394C63.3551 45.598 59.7819 51.0769 55.3741 51.0769C50.9663 51.0769 47.3931 45.598 47.3931 38.8394Z" fill="#101010"/>
<path d="M31.8447 55.3336C35.1103 59.7948 44.4117 66.0405 55.4922 55.3336" stroke="black" stroke-width="2.12827"/>
<path d="M30.6413 90.961V80.5414H34.8092C35.8733 80.5414 36.701 80.7778 37.2922 81.2508C37.8833 81.7237 38.1789 82.3937 38.1789 83.2608C38.1789 83.9111 37.9868 84.453 37.6025 84.8866C37.2281 85.3201 36.7158 85.6058 36.0655 85.7438V85.5369C36.5581 85.596 36.9818 85.7389 37.3365 85.9655C37.6912 86.1823 37.9622 86.4729 38.1494 86.8375C38.3366 87.1922 38.4302 87.611 38.4302 88.0938C38.4302 88.7145 38.2923 89.2416 38.0164 89.6752C37.7503 90.0989 37.3611 90.4191 36.8488 90.6359C36.3364 90.8526 35.7157 90.961 34.9865 90.961H30.6413ZM31.8237 89.9856H34.8683C35.1836 89.9856 35.4644 89.9609 35.7107 89.9117C35.9669 89.8624 36.1886 89.7885 36.3758 89.69C36.563 89.5816 36.7207 89.4535 36.8488 89.3057C36.9769 89.1579 37.0705 88.9805 37.1296 88.7736C37.1986 88.5667 37.233 88.3352 37.233 88.079C37.233 87.8129 37.1986 87.5814 37.1296 87.3843C37.0705 87.1774 36.9769 87.0001 36.8488 86.8523C36.7207 86.6946 36.563 86.5665 36.3758 86.468C36.1886 86.3695 35.9669 86.2956 35.7107 86.2463C35.4644 86.197 35.1836 86.1724 34.8683 86.1724H31.8237V89.9856ZM31.8237 85.1969H34.6318C35.4004 85.1969 35.9817 85.0393 36.3758 84.724C36.7798 84.4087 36.9818 83.9555 36.9818 83.3643C36.9818 82.7534 36.7798 82.2952 36.3758 81.9898C35.9817 81.6745 35.4004 81.5168 34.6318 81.5168H31.8237V85.1969ZM40.3188 81.9898V80.6448H41.7967V81.9898H40.3188ZM40.4666 90.961V83.7781H41.6637V90.961H40.4666ZM47.1384 91.094C46.3797 91.094 45.7245 90.9462 45.1727 90.6506C44.6308 90.3452 44.2071 89.9166 43.9017 89.3648C43.6061 88.813 43.4583 88.1529 43.4583 87.3843C43.4583 86.6355 43.6061 85.9852 43.9017 85.4334C44.1973 84.8718 44.6012 84.4333 45.1136 84.118C45.6358 83.8027 46.2369 83.6451 46.9167 83.6451C47.567 83.6451 48.1237 83.788 48.5868 84.0737C49.0499 84.3594 49.4046 84.7634 49.651 85.2856C49.9071 85.8078 50.0352 86.4335 50.0352 87.1626V87.6208H44.3746V86.8375H49.2371L49.0007 87.0296C49.0007 86.2414 48.8233 85.6305 48.4686 85.1969C48.1237 84.7536 47.6163 84.5319 46.9463 84.5319C46.4438 84.5319 46.0152 84.6501 45.6605 84.8866C45.3156 85.1132 45.0545 85.4334 44.8771 85.8473C44.6998 86.2512 44.6111 86.7242 44.6111 87.2661V87.3548C44.6111 87.9558 44.7047 88.4633 44.8919 88.8771C45.089 89.2909 45.3796 89.6062 45.7639 89.823C46.1482 90.0299 46.6064 90.1334 47.1384 90.1334C47.5621 90.1334 47.971 90.0693 48.3651 89.9412C48.7691 89.8033 49.1485 89.5816 49.5032 89.2761L49.917 90.1186C49.5918 90.4142 49.178 90.6506 48.6755 90.828C48.173 91.0054 47.6606 91.094 47.1384 91.094ZM51.7678 90.961V83.7781H52.9354V85.3743H52.7728C52.9797 84.8028 53.3147 84.3742 53.7778 84.0885C54.2508 83.7929 54.7927 83.6451 55.4036 83.6451C55.9751 83.6451 56.448 83.7485 56.8224 83.9555C57.2067 84.1525 57.4925 84.4629 57.6797 84.8866C57.8669 85.3103 57.9605 85.8423 57.9605 86.4828V90.961H56.7633V86.5567C56.7633 86.1133 56.7042 85.7487 56.586 85.463C56.4776 85.1772 56.3002 84.9654 56.0539 84.8275C55.8174 84.6895 55.5071 84.6205 55.1228 84.6205C54.6892 84.6205 54.3099 84.7141 53.9848 84.9014C53.6596 85.0886 53.4083 85.3497 53.231 85.6847C53.0536 86.0197 52.965 86.4138 52.965 86.867V90.961H51.7678Z" fill="white"/>
</svg>
