<svg width="81" height="66" viewBox="0 0 81 66" fill="none" xmlns="http://www.w3.org/2000/svg">
<path d="M17.7415 16.4792C14.9527 13.4538 18.4824 10.2002 20.5958 8.95156C31.69 8.23829 31.5481 20.0742 30.0903 26.0814C35.1446 18.158 46.9218 2.45201 53.5962 3.01482C60.2707 3.57764 51.2124 16.8707 45.849 23.4468C49.4948 20.3193 57.5628 14.8323 59.3449 13.8044C62.1319 12.197 66.8912 10.1045 69.431 16.3988C70.1478 18.1754 58.7251 26.22 53.4885 32.4934L62.3873 28.4877C65.2176 27.5109 70.5296 25.1792 71.8057 29.599C64.65 35.4956 49.0409 48.7646 43.8504 54.6683C38.6599 60.5721 26.2621 54.5593 20.712 50.8149C12.3457 41.7387 15.6668 31.6822 18.3732 27.7885C19.3246 25.2793 20.5303 19.5046 17.7415 16.4792Z" fill="white"/>
<path d="M7.7285 39.9566C8.80299 38.1217 11.1615 37.5054 12.9963 38.5799L43.1986 56.2666C45.0334 57.3411 45.6498 59.6996 44.5753 61.5344C43.5008 63.3692 41.1423 63.9856 39.3075 62.9111L9.10521 45.2244C7.27038 44.1499 6.65401 41.7914 7.7285 39.9566Z" fill="#181818"/>
</svg>
