<svg width="37" height="38" viewBox="0 0 37 38" fill="none" xmlns="http://www.w3.org/2000/svg">
<path d="M1.46138 17.8088C-1.00718 16.7732 0.201083 13.8932 1.11378 12.5826C7.48518 9.1593 10.6032 16.2009 11.3657 20.1497C12.2128 14.0942 14.9323 1.61496 19.0338 0.142334C23.1353 -1.33029 21.3717 8.98561 19.9773 14.3276C21.2884 11.4908 24.5778 6.06158 25.3542 4.97127C26.5684 3.2662 28.8183 0.740582 32.0239 3.77777C32.9286 4.63501 28.3462 12.4851 26.9449 17.6137L31.1265 12.8362C32.537 11.4925 35.0493 8.67585 37 10.9458C34.3612 16.3706 28.7151 28.4444 27.2411 33.3418C25.7671 38.2392 16.8047 38.0354 12.5078 37.3214C5.10216 34.2144 4.34669 27.3656 4.89466 24.3296C4.7788 22.5875 3.92993 18.8445 1.46138 17.8088Z" fill="white"/>
</svg>
