<svg width="88" height="116" viewBox="0 0 88 116" fill="none" xmlns="http://www.w3.org/2000/svg">
<rect x="17.1965" y="17.3203" width="53.2068" height="53.2068" rx="26.6034" fill="white"/>
<path d="M23.5818 40.1997C23.5818 33.4411 27.155 27.9621 31.5628 27.9621C33.0515 27.9621 34.4451 28.5871 35.6379 29.6754L33.3087 37.0179L38.4761 34.0809C39.1552 35.8809 39.5438 37.9707 39.5438 40.1997C39.5438 46.9583 35.9706 52.4372 31.5628 52.4372C27.155 52.4372 23.5818 46.9583 23.5818 40.1997Z" fill="#101010"/>
<path d="M46.9929 40.1998C46.9929 33.4412 50.5661 27.9622 54.9739 27.9622C56.4627 27.9622 57.8562 28.5872 59.049 29.6755L56.7198 37.018L61.8872 34.081C62.5663 35.881 62.955 37.9708 62.955 40.1998C62.955 46.9584 59.3817 52.4373 54.9739 52.4373C50.5661 52.4373 46.9929 46.9584 46.9929 40.1998Z" fill="#101010"/>
<path d="M32.0952 59.8863C35.1812 57.4772 43.971 54.1045 54.4421 59.8863" stroke="black" stroke-width="2.12827"/>
<path d="M32.6882 90.961V80.5414H33.708L37.935 88.478H37.4916L41.689 80.5414H42.7088V90.961H41.5855V82.1671H41.9402L38.1123 89.35H37.3142L33.4419 82.1524H33.7967V90.961H32.6882ZM47.4009 91.094C46.9082 91.094 46.4648 91.0004 46.0707 90.8132C45.6864 90.6162 45.381 90.3501 45.1544 90.0151C44.9277 89.6801 44.8144 89.3057 44.8144 88.8919C44.8144 88.3598 44.9474 87.9411 45.2135 87.6356C45.4894 87.3302 45.9377 87.1134 46.5584 86.9853C47.189 86.8572 48.0463 86.7932 49.1301 86.7932H49.7952V87.5765H49.1449C48.5438 87.5765 48.0413 87.5962 47.6373 87.6356C47.2334 87.675 46.9131 87.744 46.6767 87.8425C46.4402 87.9411 46.2727 88.0691 46.1742 88.2268C46.0756 88.3844 46.0264 88.5815 46.0264 88.818C46.0264 89.222 46.1643 89.552 46.4402 89.8082C46.7259 90.0644 47.1102 90.1925 47.593 90.1925C47.9871 90.1925 48.332 90.0989 48.6276 89.9117C48.933 89.7245 49.1695 89.4683 49.337 89.1431C49.5144 88.818 49.603 88.4436 49.603 88.0199V86.335C49.603 85.7241 49.4799 85.2856 49.2336 85.0196C48.9872 84.7437 48.5832 84.6058 48.0216 84.6058C47.5881 84.6058 47.1693 84.6698 46.7653 84.7979C46.3614 84.9161 45.9475 85.1132 45.5239 85.3891L45.11 84.5171C45.3662 84.3397 45.6569 84.187 45.982 84.0589C46.3072 83.921 46.6471 83.8175 47.0018 83.7486C47.3565 83.6796 47.6965 83.6451 48.0216 83.6451C48.6424 83.6451 49.1547 83.7486 49.5587 83.9555C49.9627 84.1525 50.2632 84.458 50.4603 84.8718C50.6573 85.2758 50.7559 85.798 50.7559 86.4385V90.961H49.6326V89.2909H49.7656C49.6868 89.6653 49.5341 89.9856 49.3074 90.2516C49.0907 90.5176 48.8197 90.7246 48.4946 90.8724C48.1694 91.0201 47.8049 91.094 47.4009 91.094ZM55.179 91.094C54.4499 91.094 53.8981 90.8773 53.5237 90.4437C53.1591 90.0102 52.9768 89.3895 52.9768 88.5815V80.5414H54.174V88.4928C54.174 88.8377 54.2183 89.1284 54.307 89.3648C54.4055 89.6013 54.5484 89.7787 54.7356 89.8969C54.9228 90.0151 55.1544 90.0742 55.4303 90.0742C55.5485 90.0742 55.6618 90.0693 55.7702 90.0595C55.8884 90.0398 55.9968 90.0151 56.0954 89.9856L56.0658 90.9906C55.9081 91.0201 55.7554 91.0448 55.6076 91.0645C55.4697 91.0842 55.3268 91.094 55.179 91.094Z" fill="#F7F7F7"/>
</svg>
