<svg width="69" height="36" viewBox="0 0 69 36" fill="none" xmlns="http://www.w3.org/2000/svg">
<path d="M0.0135609 13.6539C0.358225 5.06254 9.13523 7.33681 13.4807 9.54786L24.4891 24.5139C26.7537 27.6132 29.1029 34.0196 20.3829 34.8511C9.48289 35.8904 -0.417269 24.3931 0.0135609 13.6539Z" fill="black"/>
<path d="M32.2451 34.0155C29.1358 31.7463 22.5888 27.7202 21.2756 29.7697C17.334 28.7086 9.39003 24.1948 9.14665 14.6279C8.90327 5.06104 23.0485 1.48328 30.1516 0.890261C34.2272 -4.51211 56.8124 15.9904 67.5956 26.917C68.3826 28.0183 68.5929 30.7419 63.138 32.8256C57.6831 34.9094 43.8819 26.3536 37.6632 21.8153C32.4364 17.8321 27.2976 17.0261 31.5473 22.9738C34.0519 26.4793 37.7381 25.1131 38.8276 31.0804C39.9172 37.0478 34.8933 35.5236 32.2451 34.0155Z" fill="white"/>
</svg>
