<svg width="88" height="116" viewBox="0 0 88 116" fill="none" xmlns="http://www.w3.org/2000/svg">
<rect x="17.7964" y="17.3206" width="53.2068" height="53.2068" rx="26.6034" fill="white"/>
<path d="M24.1816 35.5396C24.1816 28.7809 27.7549 23.302 32.1627 23.302C33.6514 23.302 35.0449 23.927 36.2377 25.0153L33.9085 32.3578L39.076 29.4208C39.755 31.2208 40.1437 33.3106 40.1437 35.5396C40.1437 42.2982 36.5705 47.7771 32.1627 47.7771C27.7549 47.7771 24.1816 42.2982 24.1816 35.5396Z" fill="#101010"/>
<path d="M47.5923 35.5396C47.5923 28.7809 51.1655 23.302 55.5733 23.302C57.062 23.302 58.4556 23.927 59.6484 25.0153L57.3191 32.3578L62.4866 29.4208C63.1657 31.2208 63.5543 33.3106 63.5543 35.5396C63.5543 42.2982 59.9811 47.7771 55.5733 47.7771C51.1655 47.7771 47.5923 42.2982 47.5923 35.5396Z" fill="#101010"/>
<path d="M34.8228 52.0336C40.7817 69.383 48.7524 65.3248 52.9131 52.0336H34.8228Z" fill="black" stroke="black" stroke-width="2.12827"/>
<path d="M38.5481 61.483C39.9838 58.4679 43.5243 54.9061 45.0174 64.2708C44.156 64.8029 41.4196 64.8884 38.5481 61.483Z" fill="#D03F47"/>
<path d="M15.398 90.9613V80.5416H16.4178L20.6448 88.4783H20.2014L24.3988 80.5416H25.4186V90.9613H24.2954V82.1674H24.6501L20.8221 89.3503H20.024L16.1518 82.1526H16.5065V90.9613H15.398ZM30.3915 91.0943C29.8102 91.0943 29.3274 90.9908 28.9431 90.7839C28.5687 90.5671 28.2829 90.2469 28.0859 89.8232C27.8987 89.3995 27.8051 88.8724 27.8051 88.2418V83.7783H29.0022V88.227C29.0022 88.6507 29.0564 89.0054 29.1648 89.2912C29.283 89.567 29.4653 89.774 29.7116 89.9119C29.958 90.04 30.2634 90.104 30.628 90.104C31.0418 90.104 31.4015 90.0104 31.7069 89.8232C32.0123 89.636 32.2537 89.3749 32.4311 89.0399C32.6085 88.7049 32.6971 88.3108 32.6971 87.8575V83.7783H33.8943V90.9613H32.7267V89.3059H32.9188C32.7218 89.8873 32.3966 90.3307 31.9434 90.6361C31.5 90.9416 30.9827 91.0943 30.3915 91.0943ZM36.9618 93.6216L38.3067 90.5918V91.1091L35.1586 83.7783H36.4593L39.0309 90.0745H38.6319L41.2331 83.7783H42.4894L38.218 93.6216H36.9618ZM51.1577 91.0943C50.5074 91.0943 49.9458 90.9268 49.4729 90.5918C49.0098 90.2568 48.6994 89.8084 48.5417 89.2468H48.6895V90.9613H47.5219V80.5416H48.7191V85.4484H48.5417C48.7092 84.8967 49.0245 84.4582 49.4876 84.1331C49.9507 83.8079 50.5074 83.6453 51.1577 83.6453C51.808 83.6453 52.3697 83.798 52.8426 84.1035C53.3156 84.3991 53.6801 84.8277 53.9363 85.3893C54.2024 85.9411 54.3354 86.6013 54.3354 87.3698C54.3354 88.1285 54.2024 88.7886 53.9363 89.3503C53.6801 89.902 53.3106 90.3307 52.8278 90.6361C52.3549 90.9416 51.7982 91.0943 51.1577 91.0943ZM50.9065 90.1336C51.5864 90.1336 52.1233 89.8971 52.5175 89.4242C52.9214 88.9414 53.1234 88.2566 53.1234 87.3698C53.1234 86.4732 52.9214 85.7884 52.5175 85.3154C52.1233 84.8425 51.5864 84.606 50.9065 84.606C50.2365 84.606 49.6995 84.8425 49.2955 85.3154C48.8915 85.7884 48.6895 86.4732 48.6895 87.3698C48.6895 88.2566 48.8915 88.9414 49.2955 89.4242C49.6995 89.8971 50.2365 90.1336 50.9065 90.1336ZM55.9908 81.99V80.6451H57.4688V81.99H55.9908ZM56.1386 90.9613V83.7783H57.3358V90.9613H56.1386ZM62.8105 91.0943C62.0518 91.0943 61.3965 90.9465 60.8448 90.6509C60.3029 90.3454 59.8792 89.9168 59.5737 89.3651C59.2781 88.8133 59.1303 88.1531 59.1303 87.3846C59.1303 86.6357 59.2781 85.9854 59.5737 85.4337C59.8693 84.872 60.2733 84.4336 60.7857 84.1183C61.3079 83.803 61.9089 83.6453 62.5888 83.6453C63.2391 83.6453 63.7958 83.7882 64.2589 84.0739C64.722 84.3597 65.0767 84.7637 65.323 85.2859C65.5792 85.8081 65.7073 86.4338 65.7073 87.1629V87.6211H60.0467V86.8377H64.9092L64.6727 87.0299C64.6727 86.2416 64.4954 85.6307 64.1406 85.1972C63.7958 84.7538 63.2883 84.5321 62.6183 84.5321C62.1158 84.5321 61.6872 84.6503 61.3325 84.8868C60.9876 85.1134 60.7265 85.4337 60.5492 85.8475C60.3718 86.2515 60.2831 86.7244 60.2831 87.2663V87.355C60.2831 87.9561 60.3768 88.4635 60.564 88.8773C60.761 89.2912 61.0517 89.6065 61.436 89.8232C61.8202 90.0301 62.2784 90.1336 62.8105 90.1336C63.2342 90.1336 63.6431 90.0696 64.0372 89.9415C64.4412 89.8035 64.8205 89.5818 65.1752 89.2764L65.589 90.1188C65.2639 90.4144 64.8501 90.6509 64.3476 90.8282C63.845 91.0056 63.3327 91.0943 62.8105 91.0943ZM67.4399 90.9613V83.7783H68.6074V85.3745H68.4449C68.6518 84.8031 68.9868 84.3745 69.4499 84.0887C69.9228 83.7931 70.4648 83.6453 71.0756 83.6453C71.6471 83.6453 72.1201 83.7488 72.4945 83.9557C72.8788 84.1528 73.1645 84.4631 73.3517 84.8868C73.5389 85.3105 73.6325 85.8426 73.6325 86.483V90.9613H72.4354V86.5569C72.4354 86.1135 72.3763 85.749 72.258 85.4632C72.1496 85.1775 71.9723 84.9656 71.726 84.8277C71.4895 84.6898 71.1791 84.6208 70.7948 84.6208C70.3613 84.6208 69.982 84.7144 69.6568 84.9016C69.3316 85.0888 69.0804 85.3499 68.903 85.6849C68.7257 86.0199 68.637 86.414 68.637 86.8673V90.9613H67.4399Z" fill="#F7F7F7"/>
</svg>
