<svg width="88" height="116" viewBox="0 0 88 116" fill="none" xmlns="http://www.w3.org/2000/svg">
<rect x="16.9966" y="17.3203" width="53.2068" height="53.2068" rx="26.6034" fill="white"/>
<path d="M23.3813 37.0073C23.3813 30.2487 26.9546 24.7697 31.3624 24.7697C32.8511 24.7697 34.2446 25.3947 35.4375 26.483L33.1082 33.8255L38.2757 30.8885C38.9547 32.6885 39.3434 34.7783 39.3434 37.0073C39.3434 43.7659 35.7702 49.2448 31.3624 49.2448C26.9546 49.2448 23.3813 43.7659 23.3813 37.0073Z" fill="#101010"/>
<path d="M46.7922 37.0073C46.7922 30.2487 50.3655 24.7697 54.7733 24.7697C56.262 24.7697 57.6555 25.3947 58.8483 26.483L56.5191 33.8255L61.6866 30.8885C62.3656 32.6885 62.7543 34.7783 62.7543 37.0073C62.7543 43.7659 59.181 49.2448 54.7733 49.2448C50.3655 49.2448 46.7922 43.7659 46.7922 37.0073Z" fill="#101010"/>
<path d="M36.1509 63.0785C38.0613 55.8513 43.5025 45.7332 49.9846 63.0785" stroke="black" stroke-width="2.12827"/>
<path d="M16.323 90.961V80.5414H17.3428L21.5698 88.478H21.1264L25.3238 80.5414H26.3436V90.961H25.2203V82.1671H25.575L21.7471 89.35H20.949L17.0767 82.1524H17.4315V90.961H16.323ZM31.3165 91.094C30.7351 91.094 30.2523 90.9906 29.8681 90.7837C29.4937 90.5669 29.2079 90.2467 29.0109 89.823C28.8236 89.3993 28.73 88.8722 28.73 88.2416V83.7781H29.9272V88.2268C29.9272 88.6505 29.9814 89.0052 30.0898 89.2909C30.208 89.5668 30.3903 89.7737 30.6366 89.9117C30.8829 90.0398 31.1884 90.1038 31.553 90.1038C31.9668 90.1038 32.3264 90.0102 32.6319 89.823C32.9373 89.6358 33.1787 89.3747 33.3561 89.0397C33.5334 88.7047 33.6221 88.3105 33.6221 87.8573V83.7781H34.8193V90.961H33.6517V89.3057H33.8438C33.6467 89.887 33.3216 90.3304 32.8683 90.6359C32.425 90.9413 31.9077 91.094 31.3165 91.094ZM37.8867 93.6214L39.2317 90.5915V91.1088L36.0836 83.7781H37.3842L39.9559 90.0742H39.5568L42.1581 83.7781H43.4143L39.143 93.6214H37.8867ZM48.4765 90.961V83.7781H49.6441V85.3743H49.4815C49.5997 85.0098 49.7722 84.6994 49.9988 84.4432C50.2353 84.1772 50.5111 83.9801 50.8264 83.852C51.1516 83.7141 51.5063 83.6451 51.8906 83.6451C52.5015 83.6451 52.9941 83.7929 53.3685 84.0885C53.7528 84.3742 54.009 84.8225 54.1371 85.4334H53.9154C54.0927 84.8817 54.408 84.4481 54.8613 84.1328C55.3244 83.8077 55.8614 83.6451 56.4723 83.6451C57.0142 83.6451 57.4576 83.7486 57.8024 83.9555C58.1572 84.1624 58.4232 84.4777 58.6005 84.9014C58.7779 85.3152 58.8666 85.8423 58.8666 86.4828V90.961H57.6694V86.5419C57.6694 85.8818 57.5561 85.3989 57.3295 85.0935C57.1029 84.7782 56.7186 84.6206 56.1767 84.6206C55.7924 84.6206 55.4525 84.7142 55.1569 84.9014C54.8711 85.0886 54.6494 85.3546 54.4918 85.6995C54.344 86.0345 54.2701 86.4335 54.2701 86.8966V90.961H53.073V86.5419C53.073 85.8818 52.9547 85.3989 52.7182 85.0935C52.4916 84.7782 52.1123 84.6206 51.5802 84.6206C51.1861 84.6206 50.8461 84.7142 50.5604 84.9014C50.2747 85.0886 50.053 85.3546 49.8953 85.6995C49.7475 86.0345 49.6736 86.4335 49.6736 86.8966V90.961H48.4765ZM63.3662 91.094C62.8735 91.094 62.4301 91.0004 62.036 90.8132C61.6517 90.6162 61.3463 90.3501 61.1197 90.0151C60.893 89.6801 60.7797 89.3057 60.7797 88.8919C60.7797 88.3598 60.9128 87.9411 61.1788 87.6356C61.4547 87.3302 61.903 87.1134 62.5237 86.9853C63.1543 86.8572 64.0116 86.7932 65.0954 86.7932H65.7605V87.5765H65.1102C64.5091 87.5765 64.0066 87.5962 63.6026 87.6356C63.1987 87.675 62.8784 87.744 62.642 87.8425C62.4055 87.9411 62.238 88.0691 62.1395 88.2268C62.0409 88.3844 61.9917 88.5815 61.9917 88.818C61.9917 89.222 62.1296 89.552 62.4055 89.8082C62.6912 90.0644 63.0755 90.1925 63.5583 90.1925C63.9524 90.1925 64.2973 90.0989 64.5929 89.9117C64.8983 89.7245 65.1348 89.4683 65.3023 89.1431C65.4797 88.818 65.5683 88.4436 65.5683 88.0199V86.335C65.5683 85.7241 65.4452 85.2856 65.1989 85.0196C64.9525 84.7437 64.5485 84.6058 63.9869 84.6058C63.5534 84.6058 63.1346 84.6698 62.7306 84.7979C62.3267 84.9161 61.9128 85.1132 61.4892 85.3891L61.0753 84.5171C61.3315 84.3397 61.6222 84.187 61.9473 84.0589C62.2725 83.921 62.6124 83.8175 62.9671 83.7486C63.3218 83.6796 63.6618 83.6451 63.9869 83.6451C64.6077 83.6451 65.12 83.7486 65.524 83.9555C65.928 84.1525 66.2285 84.458 66.4256 84.8718C66.6226 85.2758 66.7212 85.798 66.7212 86.4385V90.961H65.5979V89.2909H65.7309C65.6521 89.6653 65.4994 89.9856 65.2728 90.2516C65.056 90.5176 64.785 90.7246 64.4599 90.8724C64.1347 91.0201 63.7702 91.094 63.3662 91.094ZM71.1443 91.094C70.4152 91.094 69.8634 90.8773 69.489 90.4437C69.1244 90.0102 68.9422 89.3895 68.9422 88.5815V80.5414H70.1393V88.4928C70.1393 88.8377 70.1836 89.1284 70.2723 89.3648C70.3709 89.6013 70.5137 89.7787 70.7009 89.8969C70.8881 90.0151 71.1197 90.0742 71.3956 90.0742C71.5138 90.0742 71.6271 90.0693 71.7355 90.0595C71.8537 90.0398 71.9621 90.0151 72.0607 89.9856L72.0311 90.9906C71.8735 91.0201 71.7207 91.0448 71.5729 91.0645C71.435 91.0842 71.2921 91.094 71.1443 91.094Z" fill="#F7F7F7"/>
</svg>
