<svg width="88" height="116" viewBox="0 0 88 116" fill="none" xmlns="http://www.w3.org/2000/svg">
<rect x="17.3965" y="17.3206" width="53.2068" height="53.2068" rx="26.6034" fill="white"/>
<path d="M23.782 40.2C23.782 33.4414 27.3552 27.9625 31.763 27.9625C33.2517 27.9625 34.6453 28.5875 35.8381 29.6757L33.5088 37.0183L38.6763 34.0813C39.3554 35.8812 39.744 37.971 39.744 40.2C39.744 46.9586 36.1708 52.4376 31.763 52.4376C27.3552 52.4376 23.782 46.9586 23.782 40.2Z" fill="#101010"/>
<path d="M47.1929 40.2C47.1929 33.4414 50.7661 27.9625 55.1739 27.9625C56.6626 27.9625 58.0562 28.5875 59.249 29.6757L56.9197 37.0183L62.0872 34.0813C62.7663 35.8812 63.1549 37.971 63.1549 40.2C63.1549 46.9586 59.5817 52.4376 55.1739 52.4376C50.7661 52.4376 47.1929 46.9586 47.1929 40.2Z" fill="#101010"/>
<path d="M33.3591 59.6707C37.4412 61.3754 45.7383 52.1908 53.5777 59.6707" stroke="black" stroke-width="2.12827"/>
<path d="M20.6266 90.9613V80.5416H21.5725L28.2086 89.3946H27.8539V80.5416H28.9771V90.9613H28.0608L21.4247 82.1082H21.7647V90.9613H20.6266ZM34.39 91.0943C33.6904 91.0943 33.0844 90.9416 32.5721 90.6361C32.0597 90.3307 31.6606 89.902 31.3749 89.3503C31.099 88.7886 30.9611 88.1285 30.9611 87.3698C30.9611 86.6111 31.099 85.9559 31.3749 85.4041C31.6606 84.8425 32.0597 84.4089 32.5721 84.1035C33.0844 83.798 33.6904 83.6453 34.39 83.6453C35.0895 83.6453 35.6955 83.798 36.2079 84.1035C36.7202 84.4089 37.1143 84.8425 37.3902 85.4041C37.676 85.9559 37.8188 86.6111 37.8188 87.3698C37.8188 88.1285 37.676 88.7886 37.3902 89.3503C37.1143 89.902 36.7202 90.3307 36.2079 90.6361C35.6955 90.9416 35.0895 91.0943 34.39 91.0943ZM34.39 90.1336C35.0698 90.1336 35.6068 89.8971 36.0009 89.4242C36.4049 88.9414 36.6069 88.2517 36.6069 87.355C36.6069 86.4682 36.4049 85.7884 36.0009 85.3154C35.6068 84.8425 35.0698 84.606 34.39 84.606C33.7199 84.606 33.183 84.8425 32.779 85.3154C32.375 85.7884 32.173 86.4682 32.173 87.355C32.173 88.2517 32.375 88.9414 32.779 89.4242C33.183 89.8971 33.7199 90.1336 34.39 90.1336ZM39.617 90.9613V83.7783H40.7846V85.478H40.6368C40.8043 84.8967 41.095 84.4582 41.5088 84.1626C41.9226 83.8572 42.4695 83.6798 43.1493 83.6305L43.5779 83.5862L43.6666 84.6208L42.9129 84.7095C42.2428 84.7686 41.7256 84.9853 41.361 85.3598C41.0063 85.7243 40.8289 86.2268 40.8289 86.8673V90.9613H39.617ZM44.9436 90.9613V83.7783H46.1112V85.3745H45.9486C46.0668 85.01 46.2392 84.6996 46.4659 84.4434C46.7023 84.1774 46.9782 83.9803 47.2935 83.8522C47.6187 83.7143 47.9734 83.6453 48.3577 83.6453C48.9686 83.6453 49.4612 83.7931 49.8356 84.0887C50.2199 84.3745 50.4761 84.8228 50.6042 85.4337H50.3825C50.5598 84.8819 50.8751 84.4484 51.3284 84.1331C51.7915 83.8079 52.3285 83.6453 52.9394 83.6453C53.4813 83.6453 53.9247 83.7488 54.2695 83.9557C54.6242 84.1626 54.8903 84.4779 55.0676 84.9016C55.245 85.3154 55.3337 85.8426 55.3337 86.483V90.9613H54.1365V86.5421C54.1365 85.882 54.0232 85.3992 53.7966 85.0937C53.57 84.7784 53.1857 84.6208 52.6438 84.6208C52.2595 84.6208 51.9196 84.7144 51.624 84.9016C51.3382 85.0888 51.1165 85.3548 50.9589 85.6997C50.8111 86.0347 50.7372 86.4338 50.7372 86.8969V90.9613H49.54V86.5421C49.54 85.882 49.4218 85.3992 49.1853 85.0937C48.9587 84.7784 48.5794 84.6208 48.0473 84.6208C47.6532 84.6208 47.3132 84.7144 47.0275 84.9016C46.7418 85.0888 46.5201 85.3548 46.3624 85.6997C46.2146 86.0347 46.1407 86.4338 46.1407 86.8969V90.9613H44.9436ZM59.8333 91.0943C59.3406 91.0943 58.8972 91.0007 58.5031 90.8135C58.1188 90.6164 57.8134 90.3504 57.5867 90.0154C57.3601 89.6804 57.2468 89.3059 57.2468 88.8921C57.2468 88.36 57.3798 87.9413 57.6459 87.6358C57.9218 87.3304 58.3701 87.1136 58.9908 86.9855C59.6214 86.8574 60.4786 86.7934 61.5625 86.7934H62.2276V87.5767H61.5773C60.9762 87.5767 60.4737 87.5964 60.0697 87.6358C59.6658 87.6752 59.3455 87.7442 59.1091 87.8427C58.8726 87.9413 58.7051 88.0694 58.6065 88.227C58.508 88.3847 58.4587 88.5817 58.4587 88.8182C58.4587 89.2222 58.5967 89.5523 58.8726 89.8084C59.1583 90.0646 59.5426 90.1927 60.0254 90.1927C60.4195 90.1927 60.7644 90.0991 61.06 89.9119C61.3654 89.7247 61.6019 89.4685 61.7694 89.1434C61.9467 88.8182 62.0354 88.4438 62.0354 88.0201V86.3352C62.0354 85.7243 61.9123 85.2859 61.6659 85.0198C61.4196 84.7439 61.0156 84.606 60.454 84.606C60.0205 84.606 59.6017 84.67 59.1977 84.7981C58.7938 84.9164 58.3799 85.1134 57.9562 85.3893L57.5424 84.5173C57.7986 84.34 58.0893 84.1872 58.4144 84.0592C58.7396 83.9212 59.0795 83.8178 59.4342 83.7488C59.7889 83.6798 60.1289 83.6453 60.454 83.6453C61.0747 83.6453 61.5871 83.7488 61.9911 83.9557C62.3951 84.1528 62.6956 84.4582 62.8926 84.872C63.0897 85.276 63.1882 85.7982 63.1882 86.4387V90.9613H62.065V89.2912H62.198C62.1192 89.6656 61.9665 89.9858 61.7398 90.2518C61.5231 90.5179 61.2521 90.7248 60.927 90.8726C60.6018 91.0204 60.2372 91.0943 59.8333 91.0943ZM67.6114 91.0943C66.8823 91.0943 66.3305 90.8775 65.9561 90.444C65.5915 90.0104 65.4092 89.3897 65.4092 88.5817V80.5416H66.6064V88.4931C66.6064 88.8379 66.6507 89.1286 66.7394 89.3651C66.8379 89.6015 66.9808 89.7789 67.168 89.8971C67.3552 90.0154 67.5868 90.0745 67.8627 90.0745C67.9809 90.0745 68.0942 90.0696 68.2026 90.0597C68.3208 90.04 68.4292 90.0154 68.5277 89.9858L68.4982 90.9908C68.3405 91.0204 68.1878 91.045 68.04 91.0647C67.9021 91.0844 67.7592 91.0943 67.6114 91.0943Z" fill="#F7F7F7"/>
</svg>
