<svg width="84" height="24" viewBox="0 0 84 24" fill="none" xmlns="http://www.w3.org/2000/svg">
<path fill-rule="evenodd" clip-rule="evenodd" d="M65.2208 0.0507812L83.2131 18.5429C84.2554 19.6141 84.2319 21.3274 83.1607 22.3697C82.0895 23.4119 80.3762 23.3885 79.3339 22.3172L64.8518 7.43282L46.9325 22.5013C45.7886 23.4632 44.0815 23.3157 43.1196 22.1718C42.1577 21.0279 42.3052 19.3208 43.4491 18.3588L65.2208 0.0507812Z" fill="black"/>
<path fill-rule="evenodd" clip-rule="evenodd" d="M22.7363 0L40.7286 18.4921C41.7709 19.5633 41.7474 21.2766 40.6762 22.3189C39.605 23.3611 37.8916 23.3377 36.8494 22.2665L22.3672 7.38203L4.44798 22.4505C3.30407 23.4124 1.59696 23.2649 0.635039 22.121C-0.326882 20.9771 -0.179354 19.27 0.964553 18.308L22.7363 0Z" fill="black"/>
</svg>
