<svg width="1971" height="698" viewBox="0 0 1971 698" fill="none" xmlns="http://www.w3.org/2000/svg">
<g clip-path="url(#clip0_1047_345)">
<path d="M2025.43 87.9995C1881.25 179.382 1635.51 197.624 1397.41 187.71C1279.23 182.789 1165.4 157.876 1055.01 125.419C1020.66 115.322 986.655 104.496 952.948 93.3149C786.041 34.2273 248.105 6.48514 0 0V578.958C158.937 550.76 437.758 525.551 597.272 513.89C715.451 518.811 829.274 520.507 939.673 552.964C974.014 563.06 1008.02 573.886 1041.73 585.068C1334.8 682.288 1545.37 706.902 1867.85 695.375C1930.04 697.696 2052.47 685.164 2044.64 616.472L2025.43 489.605V87.9995Z" fill="#A9D4FB"/>
</g>
<defs>
<clipPath id="clip0_1047_345">
<rect width="1971" height="698" fill="white"/>
</clipPath>
</defs>
</svg>
