<svg width="395" height="239" viewBox="0 0 395 239" fill="none" xmlns="http://www.w3.org/2000/svg">
<path d="M216.274 91.8817C216.274 142.627 175.137 183.763 124.392 183.763C73.647 183.763 32.5101 142.627 32.5101 91.8817C32.5101 41.1368 73.647 0 124.392 0C175.137 0 216.274 41.1368 216.274 91.8817Z" fill="white"/>
<path fill-rule="evenodd" clip-rule="evenodd" d="M133.055 129.531C127.278 128.082 122.286 125.63 119.534 123.872C118.199 123.019 116.426 123.41 115.573 124.745C114.72 126.08 115.111 127.854 116.446 128.707C119.68 130.773 125.24 133.485 131.66 135.096C138.062 136.702 145.621 137.286 152.648 134.721C154.136 134.178 154.902 132.531 154.358 131.043C153.815 129.555 152.168 128.789 150.68 129.332C145.135 131.356 138.85 130.985 133.055 129.531Z" fill="#101010"/>
<path d="M71.6323 59.2214C75.2843 80.9169 89.501 96.6098 103.386 94.2725C108.076 93.4831 112.128 90.7378 115.297 86.612L103.992 64.2772L121.858 70.965C123.024 64.8269 123.119 57.9124 121.915 50.7573C118.263 29.0618 104.046 13.3688 90.1609 15.7061C76.2758 18.0434 67.9803 37.5259 71.6323 59.2214Z" fill="#101010"/>
<path d="M144.302 59.2214C147.954 80.9169 162.171 96.6098 176.056 94.2725C180.745 93.4831 184.797 90.7378 187.967 86.612L176.662 64.2772L194.527 70.965C195.694 64.8269 195.789 57.9124 194.584 50.7573C190.932 29.0618 176.716 13.3688 162.83 15.7061C148.945 18.0434 140.65 37.5259 144.302 59.2214Z" fill="#101010"/>
<path d="M55.8269 201.561C55.5769 202.097 55.4509 202.683 55.4583 203.274L55.7945 230.834C55.8203 232.922 56.6748 234.915 58.17 236.373C59.6651 237.832 61.6786 238.637 63.7674 238.611L130.712 237.786C134.973 237.734 138.726 234.182 138.372 229.561C138.109 226.15 137.491 222.991 136.055 220.056C134.595 217.082 132.418 214.605 129.429 212.35L89.5836 194.3C89.1409 194.064 88.6519 193.773 88.1372 193.47C85.3841 191.835 81.8247 189.721 79.6852 192.828C77.784 195.518 75.0376 198.243 71.8853 199.337C69.8667 200.041 67.0707 200.13 64.4772 199.944C63.897 199.897 63.3211 199.845 62.7495 199.788C60.4427 199.559 58.291 199.353 56.9027 200.178C56.4447 200.552 56.077 201.025 55.8269 201.561Z" fill="#101010"/>
<path d="M143.795 201.561C143.545 202.097 143.419 202.683 143.426 203.274L143.763 230.834C143.788 232.922 144.643 234.915 146.138 236.373C147.633 237.832 149.647 238.637 151.735 238.611L218.68 237.786C222.941 237.734 226.694 234.182 226.34 229.561C226.077 226.15 225.459 222.991 224.023 220.056C222.563 217.082 220.386 214.605 217.397 212.35L177.552 194.3C177.109 194.064 176.62 193.773 176.105 193.47C173.352 191.835 169.793 189.721 167.653 192.828C165.752 195.518 163.006 198.243 159.853 199.337C157.835 200.041 155.039 200.13 152.445 199.944C151.865 199.897 151.289 199.845 150.718 199.788C148.411 199.559 146.259 199.353 144.871 200.178C144.413 200.552 144.045 201.025 143.795 201.561Z" fill="#101010"/>
<path d="M45.8963 162.56C48.9561 164.09 47.1712 167.66 45.8963 169.254C37.482 173.078 34.1035 163.835 33.4661 158.736C31.8724 166.385 27.3465 182.066 21.992 183.596C16.6374 185.126 19.7609 172.122 21.992 165.429C20.0796 168.935 15.425 175.579 14.3426 176.903C12.6498 178.974 9.56679 182.004 5.73704 177.859C4.6561 176.689 11.1647 167.068 13.3864 160.648L7.64938 166.385C5.73704 167.979 2.29482 171.357 0 168.297C3.82469 161.604 12.0478 146.688 14.3426 140.568C16.6374 134.449 28.0477 135.469 33.4661 136.744C42.6453 141.333 43.0278 150.13 42.0716 153.955C42.0716 156.186 42.8366 161.03 45.8963 162.56Z" fill="white"/>
<path d="M12.4355 134.046C12.8751 132.333 14.6196 131.302 16.3318 131.741L44.5168 138.977C46.229 139.417 47.2607 141.161 46.8211 142.874C46.3815 144.586 44.6371 145.618 42.9248 145.178L14.7399 137.942C13.0276 137.502 11.9959 135.758 12.4355 134.046Z" fill="#181818"/>
<path fill-rule="evenodd" clip-rule="evenodd" d="M135.464 102.416C135.464 102.392 135.462 102.367 135.461 102.342L131.973 102.498C131.974 102.519 131.975 102.54 131.976 102.56C132.023 103.917 131.243 106.369 127.865 108.419C124.418 110.51 118.26 112.157 107.78 111.47C106.818 111.407 105.987 112.136 105.924 113.098C105.861 114.06 106.59 114.891 107.552 114.954C118.41 115.666 125.381 114.01 129.676 111.404C131.318 110.408 132.567 109.271 133.477 108.089C134.288 109.672 135.469 111.223 137.119 112.522C140.853 115.462 146.664 116.858 155.194 114.914C156.134 114.7 156.723 113.764 156.509 112.824C156.295 111.884 155.359 111.296 154.419 111.51C146.574 113.297 141.944 111.876 139.279 109.778C136.586 107.658 135.567 104.591 135.464 102.416Z" fill="black"/>
<path d="M365.49 191.063C363.587 192.015 364.697 194.235 365.49 195.226C370.723 197.605 372.825 191.856 373.221 188.684C374.212 193.442 377.027 203.195 380.357 204.146C383.688 205.098 381.745 197.01 380.357 192.847C381.547 195.028 384.442 199.16 385.115 199.984C386.168 201.272 388.085 203.156 390.467 200.578C391.139 199.851 387.091 193.867 385.71 189.874L389.278 193.442C390.467 194.433 392.608 196.534 394.035 194.631C391.657 190.469 386.542 181.191 385.115 177.385C383.688 173.579 376.591 174.214 373.221 175.006C367.512 177.861 367.274 183.332 367.869 185.711C367.869 187.099 367.393 190.112 365.49 191.063Z" fill="white"/>
<path d="M386.301 173.328C386.028 172.264 384.943 171.622 383.878 171.895L366.348 176.396C365.283 176.669 364.641 177.754 364.915 178.819C365.188 179.884 366.273 180.526 367.338 180.252L384.868 175.752C385.933 175.478 386.574 174.393 386.301 173.328Z" fill="#181818"/>
<path d="M304.602 215.32C304.757 215.653 304.836 216.018 304.831 216.385L304.622 233.526C304.606 234.825 304.075 236.064 303.145 236.971C302.215 237.878 300.962 238.379 299.663 238.363L258.027 237.85C255.377 237.818 253.043 235.608 253.263 232.735C253.427 230.613 253.811 228.648 254.704 226.823C255.612 224.973 256.966 223.433 258.825 222.03L283.607 210.804C283.882 210.657 284.186 210.476 284.506 210.287C286.219 209.27 288.432 207.956 289.763 209.888C290.946 211.561 292.654 213.256 294.614 213.936C295.87 214.374 297.609 214.43 299.222 214.314C299.583 214.285 299.941 214.253 300.296 214.217C301.731 214.075 303.069 213.947 303.933 214.459C304.218 214.692 304.446 214.986 304.602 215.32Z" fill="#101010"/>
<path d="M359.314 215.32C359.469 215.653 359.548 216.018 359.543 216.385L359.334 233.526C359.318 234.825 358.786 236.064 357.856 236.971C356.926 237.878 355.674 238.379 354.375 238.363L312.739 237.85C310.089 237.818 307.755 235.608 307.975 232.735C308.138 230.613 308.522 228.648 309.416 226.823C310.324 224.973 311.678 223.433 313.536 222.03L338.319 210.804C338.594 210.657 338.898 210.476 339.218 210.287C340.93 209.27 343.144 207.956 344.475 209.888C345.657 211.561 347.365 213.256 349.326 213.936C350.582 214.374 352.321 214.43 353.934 214.314C354.294 214.285 354.653 214.253 355.008 214.217C356.443 214.075 357.781 213.947 358.645 214.459C358.929 214.692 359.158 214.986 359.314 215.32Z" fill="#101010"/>
<path d="M254.346 196.882C255.788 198.447 253.963 200.129 252.87 200.775C247.133 201.143 247.207 195.023 247.961 191.917C245.347 196.014 239.257 204.135 235.806 203.844C232.355 203.553 237.039 196.68 239.812 193.279C237.927 194.896 233.755 197.734 232.833 198.265C231.392 199.096 228.931 200.178 227.618 196.924C227.247 196.005 233.154 191.845 235.862 188.601L231.26 190.673C229.797 191.178 227.05 192.383 226.39 190.098C230.09 187.049 238.161 180.188 240.845 177.135C243.529 174.082 249.94 177.191 252.81 179.128C257.136 183.821 255.419 189.021 254.019 191.034C253.527 192.332 252.904 195.318 254.346 196.882Z" fill="white"/>
<path d="M259.524 184.742C258.968 185.691 257.748 186.01 256.8 185.454L241.182 176.308C240.234 175.753 239.915 174.533 240.47 173.585C241.026 172.636 242.246 172.317 243.194 172.873L258.812 182.018C259.76 182.574 260.079 183.793 259.524 184.742Z" fill="#181818"/>
<path d="M319.356 171.214C315.641 172.6 306.817 174.217 301.234 169.597" stroke="#101010" stroke-width="3.56816" stroke-linecap="round"/>
<circle cx="57.1459" cy="57.1459" r="57.1459" transform="matrix(-1 0 0 1 373.816 89.9585)" fill="white"/>
</svg>
