<svg width="22" height="20" viewBox="0 0 22 20" fill="none" xmlns="http://www.w3.org/2000/svg">
<path d="M15.1838 12.8309L14.6479 13.3636C14.6479 13.3636 13.3742 14.63 9.89777 11.1732C6.42131 7.7165 7.69494 6.4501 7.69494 6.4501L8.03235 6.11458C8.86365 5.28806 8.942 3.96108 8.2167 2.99233L6.73324 1.01068C5.83561 -0.188334 4.10112 -0.346723 3.07228 0.676268L1.22568 2.51238C0.715542 3.01963 0.373682 3.67717 0.415141 4.40661C0.5212 6.27274 1.36552 10.2879 6.07689 14.9725C11.0731 19.9403 15.761 20.1377 17.678 19.959C18.2844 19.9025 18.8117 19.5937 19.2366 19.1711L20.9079 17.5095C22.036 16.3877 21.7179 14.4646 20.2745 13.68L18.0268 12.4581C17.0791 11.943 15.9245 12.0943 15.1838 12.8309Z" fill="white"/>
</svg>
