<svg width="141" height="153" viewBox="0 0 141 153" fill="none" xmlns="http://www.w3.org/2000/svg">
<path d="M96.6615 141.19L129.105 32.184L111.144 29.7614L91.4186 27.1007L71.6929 24.4401L52.1207 21.8001L13 129.905L96.6615 141.19Z" fill="#2687EF"/>
<path d="M105.565 25.3514L112.396 26.2728L111.144 29.7614L91.4186 27.1007L71.6929 24.4401L73.0985 20.9722L82.0019 22.1731L83.986 18.472C94.4363 16.084 103.793 19.5613 107.166 21.5985L105.565 25.3514Z" fill="#2687EF" fill-opacity="0.7"/>
<path d="M59.6715 59.5584C61.7031 56.1245 65.7239 58.4643 67.4804 60.0635C71.2641 70.1127 60.2082 73.3342 54.2073 73.6888C63.0031 76.1147 80.9331 82.5481 82.2863 88.8748C83.6394 95.2016 68.7199 90.597 61.091 87.5038C65.0271 89.9867 72.4029 95.8874 73.8608 97.243C76.1406 99.3629 79.4265 103.168 74.2825 107.298C72.8306 108.463 62.131 100.187 54.8195 97.1255L61.0503 104.213C62.7554 106.552 66.4193 110.8 62.6646 113.231C55.1642 108.289 38.4248 97.6248 31.4704 94.501C24.5159 91.3772 26.6257 78.2182 28.5499 72.0292C34.6445 61.7276 44.9383 61.9478 49.3234 63.3456C51.9263 63.514 57.64 62.9922 59.6715 59.5584Z" fill="white"/>
<path d="M35.0047 56.9566C37.0146 57.4297 38.2515 59.4344 37.7674 61.4342L29.7995 94.3516C29.3154 96.3514 27.2937 97.589 25.2838 97.1159C23.2739 96.6428 22.037 94.6381 22.521 92.6383L30.489 59.7209C30.973 57.7211 32.9948 56.4835 35.0047 56.9566Z" fill="#181818"/>
</svg>
