<svg width="262" height="377" viewBox="0 0 262 377" fill="none" xmlns="http://www.w3.org/2000/svg">
<path d="M259.141 149.979C245.29 217.541 179.292 261.083 111.73 247.232C44.1684 233.381 0.626849 167.384 14.4774 99.8218C28.328 32.2599 94.3259 -11.2817 161.888 2.5689C229.45 16.4195 272.991 82.4173 259.141 149.979Z" fill="white"/>
<path d="M209.279 115.448C215.284 86.1566 204.955 59.2953 186.208 55.4521C179.877 54.1541 173.394 55.6479 167.354 59.3243L170.737 93.1777L151.369 75.9431C146.881 83.1522 143.372 91.8705 141.391 101.531C135.386 130.823 145.715 157.684 164.462 161.527C183.209 165.37 203.274 144.74 209.279 115.448Z" fill="#101010"/>
<path d="M112.527 95.6137C118.532 66.3219 108.203 39.4606 89.4558 35.6174C83.124 34.3194 76.6418 35.8131 70.6018 39.4895L73.9845 73.343L54.6163 56.1084C50.1289 63.3174 46.6192 72.0358 44.6387 81.6962C38.6337 110.988 48.963 137.849 67.7097 141.692C86.4565 145.536 106.522 124.906 112.527 95.6137Z" fill="#101010"/>
<path d="M111.484 264.917C112.263 265.57 112.886 266.391 113.304 267.317L132.83 310.479C134.309 313.749 134.428 317.473 133.16 320.832C131.893 324.191 129.343 326.909 126.071 328.389L21.224 375.805C14.5508 378.823 6.12266 376.022 3.31254 368.569C1.24054 363.066 -0.0965596 357.696 0.00545545 352.082C0.115499 346.387 1.70338 340.948 4.71693 335.262L53.6352 278.168C54.1526 277.478 54.7023 276.669 55.283 275.822C58.3808 271.273 62.3864 265.393 67.978 268.674C72.8958 271.48 79.1549 273.726 84.8591 273.135C88.5147 272.763 92.9337 270.868 96.8366 268.691C97.7064 268.197 98.5655 267.697 99.4138 267.192C102.84 265.158 106.041 263.272 108.802 263.545C109.788 263.795 110.704 264.264 111.484 264.917Z" fill="#101010"/>
<path d="M234.519 264.917C235.299 265.57 235.921 266.391 236.34 267.317L255.865 310.479C257.344 313.749 257.463 317.473 256.196 320.832C254.928 324.191 252.378 326.909 249.107 328.389L144.259 375.805C137.586 378.823 129.158 376.022 126.348 368.569C124.276 363.066 122.939 357.696 123.041 352.082C123.151 346.387 124.739 340.948 127.752 335.262L176.671 278.168C177.188 277.478 177.738 276.669 178.318 275.822C181.416 271.273 185.422 265.393 191.013 268.674C195.931 271.48 202.19 273.726 207.894 273.135C211.55 272.763 215.969 270.868 219.872 268.691C220.742 268.197 221.601 267.697 222.449 267.192C225.875 265.158 229.076 263.272 231.837 263.545C232.823 263.795 233.74 264.264 234.519 264.917Z" fill="#101010"/>
</svg>
