<svg width="36" height="36" viewBox="0 0 36 36" fill="none" xmlns="http://www.w3.org/2000/svg">
<path fill-rule="evenodd" clip-rule="evenodd" d="M13.125 3.0195V33H22.5C26.742 33 28.8645 33 30.1815 31.6815C31.5 30.3645 31.5 28.242 31.5 24V12C31.5 7.758 31.5 5.6355 30.1815 4.3185C28.8645 3 26.742 3 22.5 3H13.5L13.125 3.0195ZM16.125 9.75C16.125 9.45163 16.2435 9.16548 16.4545 8.9545C16.6655 8.74353 16.9516 8.625 17.25 8.625H24.75C25.0484 8.625 25.3345 8.74353 25.5455 8.9545C25.7565 9.16548 25.875 9.45163 25.875 9.75C25.875 10.0484 25.7565 10.3345 25.5455 10.5455C25.3345 10.7565 25.0484 10.875 24.75 10.875H17.25C16.9516 10.875 16.6655 10.7565 16.4545 10.5455C16.2435 10.3345 16.125 10.0484 16.125 9.75ZM16.125 15C16.125 14.7016 16.2435 14.4155 16.4545 14.2045C16.6655 13.9935 16.9516 13.875 17.25 13.875H24.75C25.0484 13.875 25.3345 13.9935 25.5455 14.2045C25.7565 14.4155 25.875 14.7016 25.875 15C25.875 15.2984 25.7565 15.5845 25.5455 15.7955C25.3345 16.0065 25.0484 16.125 24.75 16.125H17.25C16.9516 16.125 16.6655 16.0065 16.4545 15.7955C16.2435 15.5845 16.125 15.2984 16.125 15ZM4.5 10.875C4.512 7.371 4.6215 5.514 5.8185 4.3185C6.831 3.306 8.3175 3.0705 10.875 3.0165V32.9835C8.3175 32.9295 6.831 32.694 5.8185 31.6815C4.6215 30.486 4.512 28.629 4.5015 25.125H6C6.29837 25.125 6.58452 25.0065 6.7955 24.7955C7.00647 24.5845 7.125 24.2984 7.125 24C7.125 23.7016 7.00647 23.4155 6.7955 23.2045C6.58452 22.9935 6.29837 22.875 6 22.875H4.5V19.125H6C6.29837 19.125 6.58452 19.0065 6.7955 18.7955C7.00647 18.5845 7.125 18.2984 7.125 18C7.125 17.7016 7.00647 17.4155 6.7955 17.2045C6.58452 16.9935 6.29837 16.875 6 16.875H4.5V13.125H6C6.29837 13.125 6.58452 13.0065 6.7955 12.7955C7.00647 12.5845 7.125 12.2984 7.125 12C7.125 11.7016 7.00647 11.4155 6.7955 11.2045C6.58452 10.9935 6.29837 10.875 6 10.875H4.5ZM4.5 10.875H3C2.70163 10.875 2.41548 10.9935 2.2045 11.2045C1.99353 11.4155 1.875 11.7016 1.875 12C1.875 12.2984 1.99353 12.5845 2.2045 12.7955C2.41548 13.0065 2.70163 13.125 3 13.125H4.5V10.875ZM4.5 19.125H3C2.70163 19.125 2.41548 19.0065 2.2045 18.7955C1.99353 18.5845 1.875 18.2984 1.875 18C1.875 17.7016 1.99353 17.4155 2.2045 17.2045C2.41548 16.9935 2.70163 16.875 3 16.875H4.5V19.125ZM4.5 22.875H3C2.70163 22.875 2.41548 22.9935 2.2045 23.2045C1.99353 23.4155 1.875 23.7016 1.875 24C1.875 24.2984 1.99353 24.5845 2.2045 24.7955C2.41548 25.0065 2.70163 25.125 3 25.125H4.5015L4.5 22.875Z" fill="black"/>
</svg>
