<svg width="36" height="36" viewBox="0 0 36 36" fill="none" xmlns="http://www.w3.org/2000/svg">
<path d="M28.3793 2.83052C29.0436 2.38552 29.8417 2.1848 30.6375 2.26262C31.4333 2.34043 32.1775 2.69196 32.743 3.25723C33.3085 3.82249 33.6604 4.56648 33.7386 5.36224C33.8168 6.158 33.6164 6.95624 33.1718 7.62077L28.8855 14.0468C26.9233 16.9902 24.1373 19.2903 20.8755 20.6595C20.4278 19.3805 19.6977 18.2187 18.7395 17.2605C17.7813 16.3023 16.6195 15.5722 15.3405 15.1245C16.7104 11.8624 19.0112 9.07638 21.9555 7.11452L28.3793 2.83052ZM12.375 18C10.8832 18 9.45242 18.5927 8.39753 19.6475C7.34263 20.7024 6.75 22.1332 6.75 23.625C6.75028 23.812 6.70397 23.996 6.61525 24.1606C6.52654 24.3251 6.39822 24.465 6.24189 24.5675C6.08556 24.67 5.90615 24.7319 5.71988 24.7477C5.5336 24.7635 5.34634 24.7325 5.175 24.6578C4.8616 24.5201 4.51375 24.4811 4.17763 24.5457C3.8415 24.6104 3.53299 24.7758 3.29303 25.0199C3.05308 25.264 2.89303 25.5753 2.83413 25.9125C2.77523 26.2497 2.82026 26.5968 2.96325 26.9078C3.71103 28.5431 4.99592 29.8732 6.60436 30.6771C8.2128 31.481 10.0479 31.7102 11.8047 31.3267C13.5614 30.9431 15.134 29.97 16.2611 28.5689C17.3882 27.1678 18.0018 25.4232 18 23.625C18 22.1332 17.4074 20.7024 16.3525 19.6475C15.2976 18.5927 13.8668 18 12.375 18Z" fill="black"/>
</svg>
