<svg width="36" height="36" viewBox="0 0 36 36" fill="none" xmlns="http://www.w3.org/2000/svg">
<g clip-path="url(#clip0_866_1496)">
<rect x="-2.16667" y="6.11108" width="40.3333" height="24.6667" rx="12.3333" fill="black"/>
<path d="M11.3444 20.5335C11.0837 20.5335 10.823 20.5127 10.5622 20.4712C10.3015 20.4357 10.0556 20.3794 9.82444 20.3024C9.59333 20.2194 9.38593 20.1187 9.20222 20.0001C9.09556 19.929 9.02148 19.8431 8.98 19.7424C8.93852 19.6416 8.9237 19.5438 8.93556 19.449C8.95333 19.3483 8.99185 19.2624 9.05111 19.1912C9.1163 19.1142 9.1963 19.0668 9.29111 19.049C9.38593 19.0312 9.48963 19.0579 9.60222 19.129C9.86296 19.2831 10.1385 19.3957 10.4289 19.4668C10.7193 19.5379 11.0244 19.5735 11.3444 19.5735C11.8126 19.5735 12.1533 19.4964 12.3667 19.3424C12.58 19.1824 12.6867 18.9779 12.6867 18.729C12.6867 18.5216 12.6096 18.3587 12.4556 18.2401C12.3074 18.1216 12.0496 18.0238 11.6822 17.9468L10.7044 17.7424C10.1415 17.6238 9.72074 17.4253 9.44222 17.1468C9.16963 16.8624 9.03333 16.489 9.03333 16.0268C9.03333 15.7364 9.09259 15.4727 9.21111 15.2357C9.32963 14.9987 9.49556 14.7942 9.70889 14.6224C9.92815 14.4505 10.1859 14.3201 10.4822 14.2312C10.7844 14.1364 11.1163 14.089 11.4778 14.089C11.8333 14.089 12.1711 14.1335 12.4911 14.2224C12.8111 14.3112 13.0985 14.4416 13.3533 14.6135C13.4481 14.6787 13.5104 14.7587 13.54 14.8535C13.5756 14.9483 13.5844 15.0431 13.5667 15.1379C13.5489 15.2268 13.5074 15.3038 13.4422 15.369C13.377 15.4342 13.2941 15.4727 13.1933 15.4846C13.0985 15.4964 12.9889 15.4668 12.8644 15.3957C12.6452 15.2712 12.423 15.1824 12.1978 15.129C11.9726 15.0757 11.7296 15.049 11.4689 15.049C11.1963 15.049 10.9622 15.0875 10.7667 15.1646C10.5711 15.2416 10.42 15.3512 10.3133 15.4935C10.2126 15.6298 10.1622 15.7927 10.1622 15.9824C10.1622 16.1957 10.2333 16.3675 10.3756 16.4979C10.5178 16.6224 10.7607 16.7201 11.1044 16.7912L12.0733 16.9957C12.66 17.1201 13.0956 17.3157 13.38 17.5824C13.6704 17.849 13.8156 18.2046 13.8156 18.649C13.8156 18.9335 13.7563 19.1912 13.6378 19.4224C13.5252 19.6535 13.3593 19.852 13.14 20.0179C12.9267 20.1838 12.6689 20.3112 12.3667 20.4001C12.0644 20.489 11.7237 20.5335 11.3444 20.5335ZM17.601 20.5335C16.9965 20.5335 16.4662 20.4001 16.0099 20.1335C15.5595 19.8668 15.2099 19.4935 14.961 19.0135C14.7121 18.5275 14.5876 17.9587 14.5876 17.3068C14.5876 16.815 14.6588 16.3735 14.801 15.9824C14.9432 15.5853 15.1447 15.2475 15.4054 14.969C15.6721 14.6846 15.9891 14.4683 16.3565 14.3201C16.7299 14.1661 17.1447 14.089 17.601 14.089C18.2113 14.089 18.7417 14.2224 19.1921 14.489C19.6425 14.7498 19.9921 15.1201 20.241 15.6001C20.4899 16.0801 20.6143 16.6461 20.6143 17.2979C20.6143 17.7898 20.5432 18.2342 20.401 18.6312C20.2588 19.0283 20.0543 19.369 19.7876 19.6535C19.5269 19.9379 19.2099 20.1572 18.8365 20.3112C18.4691 20.4594 18.0573 20.5335 17.601 20.5335ZM17.601 19.5557C17.9862 19.5557 18.3121 19.4668 18.5788 19.289C18.8513 19.1112 19.0588 18.8535 19.201 18.5157C19.3491 18.1779 19.4232 17.775 19.4232 17.3068C19.4232 16.5957 19.2632 16.0446 18.9432 15.6535C18.6291 15.2624 18.1817 15.0668 17.601 15.0668C17.2217 15.0668 16.8958 15.1557 16.6232 15.3335C16.3506 15.5053 16.1402 15.7601 15.9921 16.0979C15.8499 16.4298 15.7788 16.8327 15.7788 17.3068C15.7788 18.012 15.9388 18.5631 16.2588 18.9601C16.5788 19.3572 17.0262 19.5557 17.601 19.5557ZM23.9313 20.5335C23.6705 20.5335 23.4098 20.5127 23.149 20.4712C22.8883 20.4357 22.6424 20.3794 22.4113 20.3024C22.1801 20.2194 21.9727 20.1187 21.789 20.0001C21.6824 19.929 21.6083 19.8431 21.5668 19.7424C21.5253 19.6416 21.5105 19.5438 21.5224 19.449C21.5401 19.3483 21.5787 19.2624 21.6379 19.1912C21.7031 19.1142 21.7831 19.0668 21.8779 19.049C21.9727 19.0312 22.0764 19.0579 22.189 19.129C22.4498 19.2831 22.7253 19.3957 23.0157 19.4668C23.3061 19.5379 23.6113 19.5735 23.9313 19.5735C24.3994 19.5735 24.7401 19.4964 24.9535 19.3424C25.1668 19.1824 25.2735 18.9779 25.2735 18.729C25.2735 18.5216 25.1964 18.3587 25.0424 18.2401C24.8942 18.1216 24.6364 18.0238 24.269 17.9468L23.2913 17.7424C22.7283 17.6238 22.3075 17.4253 22.029 17.1468C21.7564 16.8624 21.6201 16.489 21.6201 16.0268C21.6201 15.7364 21.6794 15.4727 21.7979 15.2357C21.9164 14.9987 22.0824 14.7942 22.2957 14.6224C22.515 14.4505 22.7727 14.3201 23.069 14.2312C23.3713 14.1364 23.7031 14.089 24.0646 14.089C24.4201 14.089 24.7579 14.1335 25.0779 14.2224C25.3979 14.3112 25.6853 14.4416 25.9401 14.6135C26.035 14.6787 26.0972 14.7587 26.1268 14.8535C26.1624 14.9483 26.1713 15.0431 26.1535 15.1379C26.1357 15.2268 26.0942 15.3038 26.029 15.369C25.9638 15.4342 25.8809 15.4727 25.7801 15.4846C25.6853 15.4964 25.5757 15.4668 25.4513 15.3957C25.232 15.2712 25.0098 15.1824 24.7846 15.129C24.5594 15.0757 24.3164 15.049 24.0557 15.049C23.7831 15.049 23.549 15.0875 23.3535 15.1646C23.1579 15.2416 23.0068 15.3512 22.9001 15.4935C22.7994 15.6298 22.749 15.7927 22.749 15.9824C22.749 16.1957 22.8201 16.3675 22.9624 16.4979C23.1046 16.6224 23.3475 16.7201 23.6913 16.7912L24.6601 16.9957C25.2468 17.1201 25.6824 17.3157 25.9668 17.5824C26.2572 17.849 26.4024 18.2046 26.4024 18.649C26.4024 18.9335 26.3431 19.1912 26.2246 19.4224C26.112 19.6535 25.9461 19.852 25.7268 20.0179C25.5135 20.1838 25.2557 20.3112 24.9535 20.4001C24.6513 20.489 24.3105 20.5335 23.9313 20.5335Z" fill="white"/>
</g>
<defs>
<clipPath id="clip0_866_1496">
<rect width="36" height="36" fill="white"/>
</clipPath>
</defs>
</svg>
