<svg width="36" height="36" viewBox="0 0 36 36" fill="none" xmlns="http://www.w3.org/2000/svg">
<path fill-rule="evenodd" clip-rule="evenodd" d="M33 18C33 9.7155 26.2845 3 18 3C9.7155 3 3 9.7155 3 18C3 26.2845 9.7155 33 18 33C26.2845 33 33 26.2845 33 18ZM18 10.5C18.3978 10.5 18.7794 10.658 19.0607 10.9393C19.342 11.2206 19.5 11.6022 19.5 12V19.5C19.5 19.8978 19.342 20.2794 19.0607 20.5607C18.7794 20.842 18.3978 21 18 21C17.6022 21 17.2206 20.842 16.9393 20.5607C16.658 20.2794 16.5 19.8978 16.5 19.5V12C16.5 11.6022 16.658 11.2206 16.9393 10.9393C17.2206 10.658 17.6022 10.5 18 10.5ZM16.5 24C16.5 23.6022 16.658 23.2206 16.9393 22.9393C17.2206 22.658 17.6022 22.5 18 22.5H18.012C18.4098 22.5 18.7914 22.658 19.0727 22.9393C19.354 23.2206 19.512 23.6022 19.512 24C19.512 24.3978 19.354 24.7794 19.0727 25.0607C18.7914 25.342 18.4098 25.5 18.012 25.5H18C17.6022 25.5 17.2206 25.342 16.9393 25.0607C16.658 24.7794 16.5 24.3978 16.5 24Z" fill="black"/>
</svg>
