<svg width="36" height="36" viewBox="0 0 36 36" fill="none" xmlns="http://www.w3.org/2000/svg">
<path fill-rule="evenodd" clip-rule="evenodd" d="M5.4 3.375C4.86294 3.375 4.34787 3.58835 3.96811 3.96811C3.58835 4.34787 3.375 4.86294 3.375 5.4V30.6C3.375 31.719 4.281 32.625 5.4 32.625H30.6C30.8659 32.625 31.1292 32.5726 31.3749 32.4709C31.6206 32.3691 31.8439 32.2199 32.0319 32.0319C32.2199 31.8439 32.3691 31.6206 32.4709 31.3749C32.5726 31.1292 32.625 30.8659 32.625 30.6V5.4C32.625 5.13407 32.5726 4.87075 32.4709 4.62507C32.3691 4.37938 32.2199 4.15615 32.0319 3.96811C31.8439 3.78007 31.6206 3.63091 31.3749 3.52914C31.1292 3.42738 30.8659 3.375 30.6 3.375H5.4ZM25.125 12C25.125 11.7016 25.0065 11.4155 24.7955 11.2045C24.5845 10.9935 24.2984 10.875 24 10.875C23.7016 10.875 23.4155 10.9935 23.2045 11.2045C22.9935 11.4155 22.875 11.7016 22.875 12V24C22.875 24.2984 22.9935 24.5845 23.2045 24.7955C23.4155 25.0065 23.7016 25.125 24 25.125C24.2984 25.125 24.5845 25.0065 24.7955 24.7955C25.0065 24.5845 25.125 24.2984 25.125 24V12ZM18 15.375C18.2984 15.375 18.5845 15.4935 18.7955 15.7045C19.0065 15.9155 19.125 16.2016 19.125 16.5V24C19.125 24.2984 19.0065 24.5845 18.7955 24.7955C18.5845 25.0065 18.2984 25.125 18 25.125C17.7016 25.125 17.4155 25.0065 17.2045 24.7955C16.9935 24.5845 16.875 24.2984 16.875 24V16.5C16.875 16.2016 16.9935 15.9155 17.2045 15.7045C17.4155 15.4935 17.7016 15.375 18 15.375ZM13.125 19.5C13.125 19.2016 13.0065 18.9155 12.7955 18.7045C12.5845 18.4935 12.2984 18.375 12 18.375C11.7016 18.375 11.4155 18.4935 11.2045 18.7045C10.9935 18.9155 10.875 19.2016 10.875 19.5V24C10.875 24.2984 10.9935 24.5845 11.2045 24.7955C11.4155 25.0065 11.7016 25.125 12 25.125C12.2984 25.125 12.5845 25.0065 12.7955 24.7955C13.0065 24.5845 13.125 24.2984 13.125 24V19.5Z" fill="black"/>
</svg>
